<?xml version="1.0"?>
<svg xmlns="http://www.w3.org/2000/svg" xmlns:xlink="http://www.w3.org/1999/xlink" xmlns:svgjs="http://svgjs.com/svgjs" version="1.1" width="512" height="512" x="0" y="0" viewBox="0 0 511 511.999" style="enable-background:new 0 0 512 512" xml:space="preserve" class=""><g><path xmlns="http://www.w3.org/2000/svg" d="m49.417969 24.851562h-16.566407c-4.144531 0-7.5 3.359376-7.5 7.5 0 4.140626 3.355469 7.5 7.5 7.5h16.566407c4.140625 0 7.5-3.359374 7.5-7.5 0-4.140624-3.359375-7.5-7.5-7.5zm0 0" fill="#1e52a3" data-original="#000000" style="" class=""/><path xmlns="http://www.w3.org/2000/svg" d="m90.835938 24.851562h-16.570313c-4.140625 0-7.5 3.359376-7.5 7.5 0 4.140626 3.359375 7.5 7.5 7.5h16.570313c4.140624 0 7.5-3.359374 7.5-7.5 0-4.140624-3.359376-7.5-7.5-7.5zm0 0" fill="#1e52a3" data-original="#000000" style="" class=""/><path xmlns="http://www.w3.org/2000/svg" d="m132.25 24.851562h-16.566406c-4.140625 0-7.5 3.359376-7.5 7.5 0 4.140626 3.359375 7.5 7.5 7.5h16.566406c4.144531 0 7.5-3.359374 7.5-7.5 0-4.140624-3.355469-7.5-7.5-7.5zm0 0" fill="#1e52a3" data-original="#000000" style="" class=""/><path xmlns="http://www.w3.org/2000/svg" d="m289.632812 82.832031h-198.800781c-4.140625 0-7.5 3.359375-7.5 7.5v33.136719c0 4.140625 3.359375 7.5 7.5 7.5h198.800781c4.140626 0 7.5-3.359375 7.5-7.5v-33.136719c0-4.140625-3.355468-7.5-7.5-7.5zm-7.5 33.136719h-183.800781v-18.136719h183.800781zm0 0" fill="#1e52a3" data-original="#000000" style="" class=""/><path xmlns="http://www.w3.org/2000/svg" d="m239.933594 149.101562h-33.132813c-4.140625 0-7.5 3.355469-7.5 7.5 0 4.140626 3.359375 7.5 7.5 7.5h33.132813c4.140625 0 7.5-3.359374 7.5-7.5 0-4.144531-3.359375-7.5-7.5-7.5zm0 0" fill="#1e52a3" data-original="#000000" style="" class=""/><path xmlns="http://www.w3.org/2000/svg" d="m190.230469 331.335938c-40.671875 0-73.765625 33.089843-73.765625 73.765624 0 40.671876 33.09375 73.765626 73.765625 73.765626 40.675781 0 73.765625-33.09375 73.765625-73.765626 0-40.675781-33.089844-73.765624-73.765625-73.765624zm0 132.53125c-32.402344 0-58.765625-26.363282-58.765625-58.765626 0-32.402343 26.363281-58.765624 58.765625-58.765624 32.402343 0 58.765625 26.363281 58.765625 58.765624 0 32.402344-26.359375 58.765626-58.765625 58.765626zm0 0" fill="#1e52a3" data-original="#000000" style="" class=""/><path xmlns="http://www.w3.org/2000/svg" d="m226.152344 389.855469-20.171875-2.929688-9.023438-18.277343c-1.261719-2.558594-3.871093-4.179688-6.722656-4.179688-2.855469 0-5.464844 1.621094-6.726563 4.179688l-9.023437 18.277343-20.167969 2.929688c-2.828125.410156-5.175781 2.390625-6.054687 5.105469-.882813 2.714843-.148438 5.695312 1.898437 7.6875l14.59375 14.230468-3.445312 20.085938c-.480469 2.816406.675781 5.660156 2.984375 7.335937 2.308593 1.679688 5.371093 1.898438 7.898437.570313l18.039063-9.484375 18.042969 9.484375c1.097656.578125 2.296874.863281 3.488281.863281 1.554687 0 3.105469-.484375 4.410156-1.433594 2.308594-1.675781 3.464844-4.519531 2.984375-7.335937l-3.445312-20.085938 14.59375-14.230468c2.042968-1.992188 2.78125-4.972657 1.898437-7.6875-.878906-2.714844-3.226563-4.695313-6.050781-5.105469zm-23.734375 19.03125c-1.769531 1.722656-2.578125 4.207031-2.160157 6.640625l1.542969 8.996094-8.078125-4.246094c-1.09375-.574219-2.292968-.863282-3.492187-.863282s-2.394531.289063-3.488281.863282l-8.082032 4.246094 1.542969-8.996094c.417969-2.433594-.386719-4.917969-2.15625-6.640625l-6.539063-6.371094 9.035157-1.3125c2.445312-.355469 4.554687-1.890625 5.648437-4.105469l4.039063-8.1875 4.042969 8.1875c1.09375 2.214844 3.203124 3.75 5.644531 4.105469l9.035156 1.3125zm0 0" fill="#1e52a3" data-original="#000000" style="" class=""/><path xmlns="http://www.w3.org/2000/svg" d="m379.964844 138.375v-114.308594c0-13.269531-10.796875-24.066406-24.066406-24.066406h-331.328126c-13.273437 0-24.070312 10.796875-24.070312 24.066406v136.675782.027343 194.628907c0 13.273437 10.796875 24.066406 24.070312 24.066406h61.878907c-2.03125 8.21875-3.117188 16.800781-3.117188 25.636718 0 58.941407 47.957031 106.898438 106.902344 106.898438 58.941406 0 106.898437-47.957031 106.898437-106.898438 0-8.835937-1.085937-17.417968-3.117187-25.636718h61.882813c13.269531 0 24.066406-10.792969 24.066406-24.066406v-194.636719c0-.007813 0-.015625 0-.019531zm-364.464844-2.351562 50.433594 27.15625c.015625.007812.035156.019531.050781.027343l104.097656 56.054688c.007813.003906.015625.007812.023438.011719l23.511719 12.660156h-34.660157l-29.660156-15.652344c-.011719-.007812-.027344-.015625-.042969-.023438l-67.972656-35.875c-.007812-.003906-.011719-.007812-.019531-.011718l-45.761719-24.152344zm83.777344 28.074218h66.890625v36.019532zm74.386718 100.96875c-.015624 0-.03125 0-.046874 0h-9.019532v-18.132812h51.269532v18.132812h-9.019532c-.015625 0-.03125 0-.050781 0zm25.632813 15v18.523438c-2.988281-.25-6.011719-.386719-9.0625-.386719-3.054687 0-6.078125.136719-9.066406.386719v-18.523438zm-103.867187-64.699218h-30.230469v-15.957032zm-70.859376 149.101562c-5 0-9.070312-4.070312-9.070312-9.070312v-182.214844l34.699219 18.3125v31.371094c0 4.140624 3.359375 7.5 7.5 7.5h66.148437l25.75 13.589843v28.609375c0 4.144532 3.359375 7.5 7.5 7.5h9.066406v20.867188c-12.550781 2.898437-24.257812 8.019531-34.695312 14.914062v-43.28125c0-4.144531-3.359375-7.5-7.5-7.5h-66.269531c-4.144531 0-7.5 3.355469-7.5 7.5v66.265625c0 4.144531 3.355469 7.5 7.5 7.5h43.285156c-3.761719 5.691407-6.988281 11.757813-9.621094 18.132813h-66.792969zm91.898438-84.402344v47.734375c-1.207031 1.148438-2.386719 2.328125-3.535156 3.53125h-47.734375v-51.265625zm73.761719 216.933594c-50.671875 0-91.898438-41.226562-91.898438-91.898438 0-50.671874 41.226563-91.898437 91.898438-91.898437 50.675781 0 91.898437 41.226563 91.898437 91.898437.003906 50.671876-41.222656 91.898438-91.898437 91.898438zm73.765625-169.199219v-47.734375h51.269531v51.265625h-47.734375c-1.152344-1.203125-2.328125-2.382812-3.535156-3.53125zm100.96875 27.597657c0 5-4.066406 9.066406-9.066406 9.066406h-66.796876c-2.628906-6.375-5.859374-12.441406-9.617187-18.132813h43.28125c4.144531 0 7.5-3.355469 7.5-7.5v-66.265625c0-4.144531-3.355469-7.5-7.5-7.5h-66.269531c-4.140625 0-7.5 3.355469-7.5 7.5v43.28125c-10.4375-6.894531-22.144532-12.015625-34.699219-14.914062v-20.867188h9.070313c4.140624 0 7.5-3.355468 7.5-7.5v-28.609375l134.097656-70.777343zm0-199.179688-141.5625 74.714844-17.351563-9.339844 46.890625-25.25c.019532-.007812.042969-.023438.0625-.03125l111.960938-60.289062zm0-106.515625h-26.640625c-4.140625 0-7.5 3.355469-7.5 7.5 0 4.140625 3.359375 7.5 7.5 7.5h26.640625v54.285156l-117.457032 63.246094h-40.707031c-4.140625 0-7.5 3.359375-7.5 7.5s3.359375 7.5 7.5 7.5h12.851563l-29.417969 15.839844-9.066406-4.882813v-51.59375c0-4.140625-3.359375-7.5-7.5-7.5h-102.246094l-55.921875-30.113281v-54.28125h291.707031c4.144531 0 7.5-3.359375 7.5-7.5 0-4.144531-3.355469-7.5-7.5-7.5h-291.707031v-25.636719c0-5 4.070312-9.066406 9.070312-9.066406h331.328126c5 0 9.066406 4.066406 9.066406 9.066406zm0 0" fill="#1e52a3" data-original="#000000" style="" class=""/></g></svg>
