<svg width="763" height="475" viewBox="0 0 763 475" fill="none" xmlns="http://www.w3.org/2000/svg">
<g clip-path="url(#clip0)" filter="url(#filter0_d)">
<rect width="755" height="467" transform="translate(4)" fill="url(#paint0_linear)" fill-opacity="0.55"/>
<path d="M47.24 87.34H58.4V92.62H47.24V87.34ZM71.6956 103L90.8356 57.7H91.1956L110.336 103H103.076L98.7556 92.08H82.4356L77.9356 103H71.6956ZM84.5956 86.68H96.6556L90.7756 71.68L84.5956 86.68ZM124.027 103.54C122.187 103.54 120.427 103.22 118.747 102.58C117.067 101.9 115.647 100.94 114.487 99.7L117.067 96.22C118.107 97.22 119.187 97.98 120.307 98.5C121.427 99.02 122.507 99.28 123.547 99.28C124.707 99.28 125.727 99.06 126.607 98.62C127.487 98.14 127.927 97.36 127.927 96.28C127.927 95.4 127.627 94.72 127.027 94.24C126.467 93.76 125.747 93.36 124.867 93.04C123.987 92.72 123.047 92.42 122.047 92.14C117.767 90.74 115.627 88.28 115.627 84.76C115.627 83.48 115.947 82.24 116.587 81.04C117.267 79.84 118.267 78.88 119.587 78.16C120.947 77.4 122.647 77.02 124.687 77.02C126.447 77.02 128.027 77.24 129.427 77.68C130.827 78.08 132.127 78.78 133.327 79.78L130.987 83.44C130.267 82.72 129.407 82.18 128.407 81.82C127.447 81.42 126.567 81.2 125.767 81.16C124.687 81.16 123.747 81.42 122.947 81.94C122.147 82.42 121.747 83.08 121.747 83.92C121.747 84.8 122.027 85.48 122.587 85.96C123.147 86.44 123.867 86.84 124.747 87.16C125.667 87.44 126.587 87.74 127.507 88.06C129.347 88.66 130.867 89.48 132.067 90.52C133.307 91.56 133.927 93.08 133.927 95.08C133.927 96.6 133.567 98 132.847 99.28C132.127 100.56 131.027 101.6 129.547 102.4C128.107 103.16 126.267 103.54 124.027 103.54ZM141.611 77.92H147.671V103H141.611V77.92ZM141.311 68.92C141.311 68 141.671 67.22 142.391 66.58C143.151 65.94 143.971 65.62 144.851 65.62C145.731 65.62 146.531 65.94 147.251 66.58C147.971 67.22 148.331 68 148.331 68.92C148.331 69.92 147.971 70.72 147.251 71.32C146.531 71.92 145.731 72.22 144.851 72.22C143.971 72.22 143.151 71.92 142.391 71.32C141.671 70.72 141.311 69.92 141.311 68.92ZM157.138 56.38H163.198V103H157.138V56.38ZM170.506 90.22C170.506 87.7 171.106 85.44 172.306 83.44C173.506 81.44 175.146 79.86 177.226 78.7C179.346 77.5 181.786 76.9 184.546 76.9C187.306 76.9 189.706 77.5 191.746 78.7C193.826 79.86 195.426 81.44 196.546 83.44C197.706 85.44 198.286 87.7 198.286 90.22C198.286 92.74 197.706 95.02 196.546 97.06C195.386 99.06 193.766 100.66 191.686 101.86C189.606 103.02 187.186 103.6 184.426 103.6C181.746 103.6 179.366 103.06 177.286 101.98C175.206 100.9 173.546 99.36 172.306 97.36C171.106 95.36 170.506 92.98 170.506 90.22ZM176.626 90.28C176.626 91.88 176.966 93.3 177.646 94.54C178.326 95.78 179.246 96.78 180.406 97.54C181.606 98.26 182.926 98.62 184.366 98.62C186.646 98.62 188.506 97.82 189.946 96.22C191.426 94.62 192.166 92.64 192.166 90.28C192.166 87.92 191.426 85.94 189.946 84.34C188.506 82.7 186.646 81.88 184.366 81.88C182.886 81.88 181.566 82.26 180.406 83.02C179.246 83.78 178.326 84.8 177.646 86.08C176.966 87.36 176.626 88.76 176.626 90.28ZM215.548 115.06L221.308 102.16L209.728 77.92H216.508L224.368 95.26L232.048 77.92H237.628L221.428 115.06H215.548ZM256.581 77.92L257.061 83.86C257.781 82.42 258.741 81.18 259.941 80.14C261.141 79.1 262.381 78.3 263.661 77.74C264.981 77.18 266.101 76.9 267.021 76.9L266.721 82.9C264.841 82.78 263.181 83.14 261.741 83.98C260.341 84.82 259.241 85.94 258.441 87.34C257.641 88.74 257.241 90.24 257.241 91.84V103H251.181V77.92H256.581ZM284.738 103.6C281.858 103.6 279.378 103.04 277.298 101.92C275.218 100.76 273.618 99.18 272.498 97.18C271.378 95.14 270.818 92.84 270.818 90.28C270.818 87.8 271.438 85.56 272.678 83.56C273.958 81.52 275.658 79.9 277.778 78.7C279.898 77.5 282.258 76.9 284.858 76.9C288.218 76.9 290.998 77.88 293.198 79.84C295.438 81.76 296.938 84.48 297.698 88L278.078 94.78C278.798 95.94 279.738 96.84 280.898 97.48C282.098 98.12 283.418 98.44 284.858 98.44C285.938 98.44 286.978 98.26 287.978 97.9C288.978 97.54 289.918 97.02 290.798 96.34L293.558 100.84C292.278 101.68 290.858 102.36 289.298 102.88C287.738 103.36 286.218 103.6 284.738 103.6ZM276.818 89.92C276.818 90.36 276.838 90.78 276.878 91.18L290.858 86.08C290.338 84.92 289.558 83.9 288.518 83.02C287.518 82.14 286.158 81.7 284.438 81.7C282.198 81.7 280.358 82.48 278.918 84.04C277.518 85.56 276.818 87.52 276.818 89.92ZM306.602 103V83.32H302.342V77.92H306.602V67.66C306.602 64.1 307.442 61.34 309.122 59.38C310.842 57.38 313.342 56.38 316.622 56.38C317.502 56.38 318.462 56.52 319.502 56.8C320.582 57.04 321.542 57.44 322.382 58L319.802 62.38C319.442 61.98 319.022 61.72 318.542 61.6C318.102 61.44 317.662 61.36 317.222 61.36C315.822 61.36 314.702 61.86 313.862 62.86C313.062 63.82 312.662 65.46 312.662 67.78V77.92H320.582V83.32H312.662V103H306.602ZM335.803 104.02C333.483 104.02 331.563 103.32 330.043 101.92C328.563 100.52 327.803 98.72 327.763 96.52V77.92H333.823V94.36C333.903 95.68 334.283 96.76 334.963 97.6C335.643 98.4 336.723 98.82 338.203 98.86C339.563 98.86 340.783 98.46 341.863 97.66C342.943 96.82 343.783 95.68 344.383 94.24C345.023 92.8 345.343 91.18 345.343 89.38V77.92H351.403V103H345.943L345.583 98.38C344.743 100.02 343.443 101.38 341.683 102.46C339.963 103.5 338.003 104.02 335.803 104.02ZM373.109 115.48C370.229 115.48 367.869 114.98 366.029 113.98C364.189 112.98 362.489 111.8 360.929 110.44L364.529 106.3C365.769 107.5 367.049 108.44 368.369 109.12C369.729 109.8 371.269 110.14 372.989 110.14C375.669 110.14 377.749 109.5 379.229 108.22C380.749 106.94 381.529 105.22 381.569 103.06V98.5C380.729 99.98 379.429 101.2 377.669 102.16C375.949 103.12 373.869 103.6 371.429 103.6C369.109 103.6 366.989 103.02 365.069 101.86C363.149 100.7 361.609 99.12 360.449 97.12C359.289 95.12 358.709 92.86 358.709 90.34C358.709 87.74 359.309 85.44 360.509 83.44C361.749 81.4 363.369 79.8 365.369 78.64C367.369 77.48 369.509 76.9 371.789 76.9C373.989 76.9 375.969 77.32 377.729 78.16C379.529 78.96 380.829 79.98 381.629 81.22L382.049 77.92H387.629V103.18C387.629 105.46 387.029 107.52 385.829 109.36C384.629 111.24 382.929 112.72 380.729 113.8C378.569 114.92 376.029 115.48 373.109 115.48ZM364.829 90.16C364.829 91.76 365.189 93.2 365.909 94.48C366.669 95.76 367.669 96.78 368.909 97.54C370.189 98.26 371.609 98.62 373.169 98.62C375.249 98.62 377.029 98.08 378.509 97C379.989 95.88 381.009 94.46 381.569 92.74V87.58C381.009 85.86 379.969 84.48 378.449 83.44C376.969 82.36 375.209 81.82 373.169 81.82C371.609 81.82 370.189 82.18 368.909 82.9C367.669 83.62 366.669 84.62 365.909 85.9C365.189 87.14 364.829 88.56 364.829 90.16ZM397.08 77.92H403.14V103H397.08V77.92ZM396.78 68.92C396.78 68 397.14 67.22 397.86 66.58C398.62 65.94 399.44 65.62 400.32 65.62C401.2 65.62 402 65.94 402.72 66.58C403.44 67.22 403.8 68 403.8 68.92C403.8 69.92 403.44 70.72 402.72 71.32C402 71.92 401.2 72.22 400.32 72.22C399.44 72.22 398.62 71.92 397.86 71.32C397.14 70.72 396.78 69.92 396.78 68.92ZM410.447 90.22C410.447 87.7 411.047 85.44 412.247 83.44C413.447 81.44 415.087 79.86 417.167 78.7C419.287 77.5 421.727 76.9 424.487 76.9C427.247 76.9 429.647 77.5 431.687 78.7C433.767 79.86 435.367 81.44 436.487 83.44C437.647 85.44 438.227 87.7 438.227 90.22C438.227 92.74 437.647 95.02 436.487 97.06C435.327 99.06 433.707 100.66 431.627 101.86C429.547 103.02 427.127 103.6 424.367 103.6C421.687 103.6 419.307 103.06 417.227 101.98C415.147 100.9 413.487 99.36 412.247 97.36C411.047 95.36 410.447 92.98 410.447 90.22ZM416.567 90.28C416.567 91.88 416.907 93.3 417.587 94.54C418.267 95.78 419.187 96.78 420.347 97.54C421.547 98.26 422.867 98.62 424.307 98.62C426.587 98.62 428.447 97.82 429.887 96.22C431.367 94.62 432.107 92.64 432.107 90.28C432.107 87.92 431.367 85.94 429.887 84.34C428.447 82.7 426.587 81.88 424.307 81.88C422.827 81.88 421.507 82.26 420.347 83.02C419.187 83.78 418.267 84.8 417.587 86.08C416.907 87.36 416.567 88.76 416.567 90.28ZM442.657 99.64C442.657 98.68 442.997 97.88 443.677 97.24C444.397 96.56 445.177 96.22 446.017 96.22C446.777 96.22 447.497 96.56 448.177 97.24C448.897 97.88 449.257 98.68 449.257 99.64C449.257 100.68 448.897 101.5 448.177 102.1C447.497 102.7 446.777 103 446.017 103C445.177 103 444.397 102.7 443.677 102.1C442.997 101.5 442.657 100.68 442.657 99.64ZM47.24 177.34H58.4V182.62H47.24V177.34ZM73.0156 149.5H101.996V155.56H90.4756V193H84.1756V155.56H73.0156V149.5ZM101.131 180.22C101.131 177.7 101.731 175.44 102.931 173.44C104.131 171.44 105.771 169.86 107.851 168.7C109.971 167.5 112.411 166.9 115.171 166.9C117.931 166.9 120.331 167.5 122.371 168.7C124.451 169.86 126.051 171.44 127.171 173.44C128.331 175.44 128.911 177.7 128.911 180.22C128.911 182.74 128.331 185.02 127.171 187.06C126.011 189.06 124.391 190.66 122.311 191.86C120.231 193.02 117.811 193.6 115.051 193.6C112.371 193.6 109.991 193.06 107.911 191.98C105.831 190.9 104.171 189.36 102.931 187.36C101.731 185.36 101.131 182.98 101.131 180.22ZM107.251 180.28C107.251 181.88 107.591 183.3 108.271 184.54C108.951 185.78 109.871 186.78 111.031 187.54C112.231 188.26 113.551 188.62 114.991 188.62C117.271 188.62 119.131 187.82 120.571 186.22C122.051 184.62 122.791 182.64 122.791 180.28C122.791 177.92 122.051 175.94 120.571 174.34C119.131 172.7 117.271 171.88 114.991 171.88C113.511 171.88 112.191 172.26 111.031 173.02C109.871 173.78 108.951 174.8 108.271 176.08C107.591 177.36 107.251 178.76 107.251 180.28ZM141.62 167.92L142.1 173.86C142.82 172.42 143.78 171.18 144.98 170.14C146.18 169.1 147.42 168.3 148.7 167.74C150.02 167.18 151.14 166.9 152.06 166.9L151.76 172.9C149.88 172.78 148.22 173.14 146.78 173.98C145.38 174.82 144.28 175.94 143.48 177.34C142.68 178.74 142.28 180.24 142.28 181.84V193H136.22V167.92H141.62ZM161.472 156.94H167.592V167.98H174.312V172.72H167.592V193H161.472V172.72H157.032V167.98H161.472V156.94ZM189.026 194.02C186.706 194.02 184.786 193.32 183.266 191.92C181.786 190.52 181.026 188.72 180.986 186.52V167.92H187.046V184.36C187.126 185.68 187.506 186.76 188.186 187.6C188.866 188.4 189.946 188.82 191.426 188.86C192.786 188.86 194.006 188.46 195.086 187.66C196.166 186.82 197.006 185.68 197.606 184.24C198.246 182.8 198.566 181.18 198.566 179.38V167.92H204.626V193H199.166L198.806 188.38C197.966 190.02 196.666 191.38 194.906 192.46C193.186 193.5 191.226 194.02 189.026 194.02ZM219.492 167.92L219.972 173.86C220.692 172.42 221.652 171.18 222.852 170.14C224.052 169.1 225.292 168.3 226.572 167.74C227.892 167.18 229.012 166.9 229.932 166.9L229.632 172.9C227.752 172.78 226.092 173.14 224.652 173.98C223.252 174.82 222.152 175.94 221.352 177.34C220.552 178.74 220.152 180.24 220.152 181.84V193H214.092V167.92H219.492ZM246.799 193.6C244.439 193.6 242.299 193.1 240.379 192.1C238.459 191.1 236.939 189.64 235.819 187.72C234.699 185.76 234.139 183.34 234.139 180.46C234.139 177.66 234.719 175.26 235.879 173.26C237.079 171.22 238.639 169.66 240.559 168.58C242.479 167.46 244.599 166.9 246.919 166.9C249.239 166.9 251.159 167.38 252.679 168.34C254.199 169.26 255.399 170.38 256.279 171.7L256.699 167.92H262.279V193H256.219V189.04C255.779 189.6 255.119 190.24 254.239 190.96C253.359 191.68 252.299 192.3 251.059 192.82C249.819 193.34 248.399 193.6 246.799 193.6ZM248.419 188.62C250.379 188.62 252.059 188.1 253.459 187.06C254.859 185.98 255.779 184.52 256.219 182.68V177.52C255.739 175.88 254.759 174.52 253.279 173.44C251.839 172.36 250.159 171.82 248.239 171.82C246.799 171.82 245.479 172.18 244.279 172.9C243.079 173.58 242.119 174.56 241.399 175.84C240.679 177.08 240.319 178.52 240.319 180.16C240.319 181.76 240.679 183.2 241.399 184.48C242.159 185.76 243.159 186.78 244.399 187.54C245.639 188.26 246.979 188.62 248.419 188.62ZM268.868 189.64C268.868 188.68 269.208 187.88 269.888 187.24C270.608 186.56 271.388 186.22 272.228 186.22C272.988 186.22 273.708 186.56 274.388 187.24C275.108 187.88 275.468 188.68 275.468 189.64C275.468 190.68 275.108 191.5 274.388 192.1C273.708 192.7 272.988 193 272.228 193C271.388 193 270.608 192.7 269.888 192.1C269.208 191.5 268.868 190.68 268.868 189.64ZM47.24 267.34H58.4V272.62H47.24V267.34ZM88.0756 239.5C92.8756 239.5 96.6356 240.7 99.3556 243.1C102.076 245.5 103.436 248.86 103.436 253.18C103.436 254.9 103.176 256.6 102.656 258.28C102.136 259.96 101.296 261.5 100.136 262.9C99.0156 264.26 97.5156 265.36 95.6356 266.2C93.7956 267 91.5356 267.4 88.8556 267.4H82.4356V283H76.1956V239.5H88.0756ZM88.7956 261.28C90.4356 261.28 91.7956 261.02 92.8756 260.5C93.9956 259.94 94.8556 259.24 95.4556 258.4C96.0956 257.56 96.5356 256.7 96.7756 255.82C97.0556 254.9 97.1956 254.08 97.1956 253.36C97.1956 252.24 96.9556 251.08 96.4756 249.88C95.9956 248.68 95.1556 247.66 93.9556 246.82C92.7956 245.98 91.1756 245.56 89.0956 245.56H82.4356V261.28H88.7956ZM122.609 283.6C119.729 283.6 117.249 283.04 115.169 281.92C113.089 280.76 111.489 279.18 110.369 277.18C109.249 275.14 108.689 272.84 108.689 270.28C108.689 267.8 109.309 265.56 110.549 263.56C111.829 261.52 113.529 259.9 115.649 258.7C117.769 257.5 120.129 256.9 122.729 256.9C126.089 256.9 128.869 257.88 131.069 259.84C133.309 261.76 134.809 264.48 135.569 268L115.949 274.78C116.669 275.94 117.609 276.84 118.769 277.48C119.969 278.12 121.289 278.44 122.729 278.44C123.809 278.44 124.849 278.26 125.849 277.9C126.849 277.54 127.789 277.02 128.669 276.34L131.429 280.84C130.149 281.68 128.729 282.36 127.169 282.88C125.609 283.36 124.089 283.6 122.609 283.6ZM114.689 269.92C114.689 270.36 114.709 270.78 114.749 271.18L128.729 266.08C128.209 264.92 127.429 263.9 126.389 263.02C125.389 262.14 124.029 261.7 122.309 261.7C120.069 261.7 118.229 262.48 116.789 264.04C115.389 265.56 114.689 267.52 114.689 269.92ZM147.773 257.92L148.253 263.86C148.973 262.42 149.933 261.18 151.133 260.14C152.333 259.1 153.573 258.3 154.853 257.74C156.173 257.18 157.293 256.9 158.213 256.9L157.913 262.9C156.033 262.78 154.373 263.14 152.933 263.98C151.533 264.82 150.433 265.94 149.633 267.34C148.833 268.74 148.433 270.24 148.433 271.84V283H142.373V257.92H147.773ZM170.684 257.92L171.104 262.54C172.064 260.78 173.364 259.4 175.004 258.4C176.684 257.4 178.584 256.9 180.704 256.9C182.784 256.9 184.524 257.38 185.924 258.34C187.324 259.3 188.164 260.6 188.444 262.24C189.484 260.56 190.804 259.26 192.404 258.34C194.004 257.38 195.704 256.9 197.504 256.9C199.944 256.9 201.884 257.6 203.324 259C204.764 260.36 205.524 262.16 205.604 264.4V283H199.604V266.68C199.524 265.4 199.224 264.34 198.704 263.5C198.184 262.66 197.224 262.2 195.824 262.12C194.344 262.12 193.064 262.56 191.984 263.44C190.904 264.32 190.044 265.46 189.404 266.86C188.804 268.26 188.484 269.76 188.444 271.36V283H182.384V266.68C182.344 265.4 182.024 264.34 181.424 263.5C180.864 262.66 179.884 262.2 178.484 262.12C177.044 262.12 175.784 262.56 174.704 263.44C173.624 264.32 172.784 265.48 172.184 266.92C171.584 268.32 171.284 269.82 171.284 271.42V283H165.224V257.92H170.684ZM215.088 257.92H221.148V283H215.088V257.92ZM214.788 248.92C214.788 248 215.148 247.22 215.868 246.58C216.628 245.94 217.448 245.62 218.328 245.62C219.208 245.62 220.008 245.94 220.728 246.58C221.448 247.22 221.808 248 221.808 248.92C221.808 249.92 221.448 250.72 220.728 251.32C220.008 251.92 219.208 252.22 218.328 252.22C217.448 252.22 216.628 251.92 215.868 251.32C215.148 250.72 214.788 249.92 214.788 248.92ZM237.875 283.54C236.035 283.54 234.275 283.22 232.595 282.58C230.915 281.9 229.495 280.94 228.335 279.7L230.915 276.22C231.955 277.22 233.035 277.98 234.155 278.5C235.275 279.02 236.355 279.28 237.395 279.28C238.555 279.28 239.575 279.06 240.455 278.62C241.335 278.14 241.775 277.36 241.775 276.28C241.775 275.4 241.475 274.72 240.875 274.24C240.315 273.76 239.595 273.36 238.715 273.04C237.835 272.72 236.895 272.42 235.895 272.14C231.615 270.74 229.475 268.28 229.475 264.76C229.475 263.48 229.795 262.24 230.435 261.04C231.115 259.84 232.115 258.88 233.435 258.16C234.795 257.4 236.495 257.02 238.535 257.02C240.295 257.02 241.875 257.24 243.275 257.68C244.675 258.08 245.975 258.78 247.175 259.78L244.835 263.44C244.115 262.72 243.255 262.18 242.255 261.82C241.295 261.42 240.415 261.2 239.615 261.16C238.535 261.16 237.595 261.42 236.795 261.94C235.995 262.42 235.595 263.08 235.595 263.92C235.595 264.8 235.875 265.48 236.435 265.96C236.995 266.44 237.715 266.84 238.595 267.16C239.515 267.44 240.435 267.74 241.355 268.06C243.195 268.66 244.715 269.48 245.915 270.52C247.155 271.56 247.775 273.08 247.775 275.08C247.775 276.6 247.415 278 246.695 279.28C245.975 280.56 244.875 281.6 243.395 282.4C241.955 283.16 240.115 283.54 237.875 283.54ZM253.299 270.22C253.299 267.7 253.899 265.44 255.099 263.44C256.299 261.44 257.939 259.86 260.019 258.7C262.139 257.5 264.579 256.9 267.339 256.9C270.099 256.9 272.499 257.5 274.539 258.7C276.619 259.86 278.219 261.44 279.339 263.44C280.499 265.44 281.079 267.7 281.079 270.22C281.079 272.74 280.499 275.02 279.339 277.06C278.179 279.06 276.559 280.66 274.479 281.86C272.399 283.02 269.979 283.6 267.219 283.6C264.539 283.6 262.159 283.06 260.079 281.98C257.999 280.9 256.339 279.36 255.099 277.36C253.899 275.36 253.299 272.98 253.299 270.22ZM259.419 270.28C259.419 271.88 259.759 273.3 260.439 274.54C261.119 275.78 262.039 276.78 263.199 277.54C264.399 278.26 265.719 278.62 267.159 278.62C269.439 278.62 271.299 277.82 272.739 276.22C274.219 274.62 274.959 272.64 274.959 270.28C274.959 267.92 274.219 265.94 272.739 264.34C271.299 262.7 269.439 261.88 267.159 261.88C265.679 261.88 264.359 262.26 263.199 263.02C262.039 263.78 261.119 264.8 260.439 266.08C259.759 267.36 259.419 268.76 259.419 270.28ZM295.648 283.54C293.808 283.54 292.048 283.22 290.368 282.58C288.688 281.9 287.268 280.94 286.108 279.7L288.688 276.22C289.728 277.22 290.808 277.98 291.928 278.5C293.048 279.02 294.128 279.28 295.168 279.28C296.328 279.28 297.348 279.06 298.228 278.62C299.108 278.14 299.548 277.36 299.548 276.28C299.548 275.4 299.248 274.72 298.648 274.24C298.088 273.76 297.368 273.36 296.488 273.04C295.608 272.72 294.668 272.42 293.668 272.14C289.388 270.74 287.248 268.28 287.248 264.76C287.248 263.48 287.568 262.24 288.208 261.04C288.888 259.84 289.888 258.88 291.208 258.16C292.568 257.4 294.268 257.02 296.308 257.02C298.068 257.02 299.648 257.24 301.048 257.68C302.448 258.08 303.748 258.78 304.948 259.78L302.608 263.44C301.888 262.72 301.028 262.18 300.028 261.82C299.068 261.42 298.188 261.2 297.388 261.16C296.308 261.16 295.368 261.42 294.568 261.94C293.768 262.42 293.368 263.08 293.368 263.92C293.368 264.8 293.648 265.48 294.208 265.96C294.768 266.44 295.488 266.84 296.368 267.16C297.288 267.44 298.208 267.74 299.128 268.06C300.968 268.66 302.488 269.48 303.688 270.52C304.928 271.56 305.548 273.08 305.548 275.08C305.548 276.6 305.188 278 304.468 279.28C303.748 280.56 302.648 281.6 301.168 282.4C299.728 283.16 297.888 283.54 295.648 283.54ZM321.025 283V236.38H326.965V262.36C327.845 260.8 329.125 259.52 330.805 258.52C332.525 257.48 334.565 256.96 336.925 256.96C339.245 256.96 341.165 257.66 342.685 259.06C344.205 260.46 345.005 262.26 345.085 264.46V283H339.025V266.56C338.985 265.28 338.605 264.24 337.885 263.44C337.165 262.6 336.045 262.16 334.525 262.12C332.405 262.12 330.625 263.02 329.185 264.82C327.785 266.58 327.085 268.82 327.085 271.54V283H321.025ZM362.639 284.02C360.319 284.02 358.399 283.32 356.879 281.92C355.399 280.52 354.639 278.72 354.599 276.52V257.92H360.659V274.36C360.739 275.68 361.119 276.76 361.799 277.6C362.479 278.4 363.559 278.82 365.039 278.86C366.399 278.86 367.619 278.46 368.699 277.66C369.779 276.82 370.619 275.68 371.219 274.24C371.859 272.8 372.179 271.18 372.179 269.38V257.92H378.239V283H372.779L372.419 278.38C371.579 280.02 370.279 281.38 368.519 282.46C366.799 283.5 364.839 284.02 362.639 284.02ZM393.165 257.92L393.585 262.54C394.545 260.78 395.845 259.4 397.485 258.4C399.165 257.4 401.065 256.9 403.185 256.9C405.265 256.9 407.005 257.38 408.405 258.34C409.805 259.3 410.645 260.6 410.925 262.24C411.965 260.56 413.285 259.26 414.885 258.34C416.485 257.38 418.185 256.9 419.985 256.9C422.425 256.9 424.365 257.6 425.805 259C427.245 260.36 428.005 262.16 428.085 264.4V283H422.085V266.68C422.005 265.4 421.705 264.34 421.185 263.5C420.665 262.66 419.705 262.2 418.305 262.12C416.825 262.12 415.545 262.56 414.465 263.44C413.385 264.32 412.525 265.46 411.885 266.86C411.285 268.26 410.965 269.76 410.925 271.36V283H404.865V266.68C404.825 265.4 404.505 264.34 403.905 263.5C403.345 262.66 402.365 262.2 400.965 262.12C399.525 262.12 398.265 262.56 397.185 263.44C396.105 264.32 395.265 265.48 394.665 266.92C394.065 268.32 393.765 269.82 393.765 271.42V283H387.705V257.92H393.165ZM448.068 283.6C445.708 283.6 443.568 283.1 441.648 282.1C439.728 281.1 438.208 279.64 437.088 277.72C435.968 275.76 435.408 273.34 435.408 270.46C435.408 267.66 435.988 265.26 437.148 263.26C438.348 261.22 439.908 259.66 441.828 258.58C443.748 257.46 445.868 256.9 448.188 256.9C450.508 256.9 452.428 257.38 453.948 258.34C455.468 259.26 456.668 260.38 457.548 261.7L457.968 257.92H463.548V283H457.488V279.04C457.048 279.6 456.388 280.24 455.508 280.96C454.628 281.68 453.568 282.3 452.328 282.82C451.088 283.34 449.668 283.6 448.068 283.6ZM449.688 278.62C451.648 278.62 453.328 278.1 454.728 277.06C456.128 275.98 457.048 274.52 457.488 272.68V267.52C457.008 265.88 456.028 264.52 454.548 263.44C453.108 262.36 451.428 261.82 449.508 261.82C448.068 261.82 446.748 262.18 445.548 262.9C444.348 263.58 443.388 264.56 442.668 265.84C441.948 267.08 441.588 268.52 441.588 270.16C441.588 271.76 441.948 273.2 442.668 274.48C443.428 275.76 444.428 276.78 445.668 277.54C446.908 278.26 448.248 278.62 449.688 278.62ZM478.477 257.92L478.897 262.72C479.697 260.96 480.977 259.56 482.737 258.52C484.497 257.48 486.557 256.96 488.917 256.96C491.237 256.96 493.157 257.66 494.677 259.06C496.197 260.46 496.997 262.26 497.077 264.46V283H491.017V266.56C490.977 265.28 490.597 264.24 489.877 263.44C489.157 262.6 488.037 262.16 486.517 262.12C484.397 262.12 482.617 263 481.177 264.76C479.777 266.52 479.077 268.78 479.077 271.54V283H473.017V257.92H478.477ZM506.592 257.92H512.652V283H506.592V257.92ZM506.292 248.92C506.292 248 506.652 247.22 507.372 246.58C508.132 245.94 508.952 245.62 509.832 245.62C510.712 245.62 511.512 245.94 512.232 246.58C512.952 247.22 513.312 248 513.312 248.92C513.312 249.92 512.952 250.72 512.232 251.32C511.512 251.92 510.712 252.22 509.832 252.22C508.952 252.22 508.132 251.92 507.372 251.32C506.652 250.72 506.292 249.92 506.292 248.92ZM524.519 246.94H530.639V257.98H537.359V262.72H530.639V283H524.519V262.72H520.079V257.98H524.519V246.94ZM554.533 283.6C552.173 283.6 550.033 283.1 548.113 282.1C546.193 281.1 544.673 279.64 543.553 277.72C542.433 275.76 541.873 273.34 541.873 270.46C541.873 267.66 542.453 265.26 543.613 263.26C544.813 261.22 546.373 259.66 548.293 258.58C550.213 257.46 552.333 256.9 554.653 256.9C556.973 256.9 558.893 257.38 560.413 258.34C561.933 259.26 563.133 260.38 564.013 261.7L564.433 257.92H570.013V283H563.953V279.04C563.513 279.6 562.853 280.24 561.973 280.96C561.093 281.68 560.033 282.3 558.793 282.82C557.553 283.34 556.133 283.6 554.533 283.6ZM556.153 278.62C558.113 278.62 559.793 278.1 561.193 277.06C562.593 275.98 563.513 274.52 563.953 272.68V267.52C563.473 265.88 562.493 264.52 561.013 263.44C559.573 262.36 557.893 261.82 555.973 261.82C554.533 261.82 553.213 262.18 552.013 262.9C550.813 263.58 549.853 264.56 549.133 265.84C548.413 267.08 548.053 268.52 548.053 270.16C548.053 271.76 548.413 273.2 549.133 274.48C549.893 275.76 550.893 276.78 552.133 277.54C553.373 278.26 554.713 278.62 556.153 278.62ZM584.882 257.92L585.362 263.86C586.082 262.42 587.042 261.18 588.242 260.14C589.442 259.1 590.682 258.3 591.962 257.74C593.282 257.18 594.402 256.9 595.322 256.9L595.022 262.9C593.142 262.78 591.482 263.14 590.042 263.98C588.642 264.82 587.542 265.94 586.742 267.34C585.942 268.74 585.542 270.24 585.542 271.84V283H579.482V257.92H584.882ZM602.334 257.92H608.394V283H602.334V257.92ZM602.034 248.92C602.034 248 602.394 247.22 603.114 246.58C603.874 245.94 604.694 245.62 605.574 245.62C606.454 245.62 607.254 245.94 607.974 246.58C608.694 247.22 609.054 248 609.054 248.92C609.054 249.92 608.694 250.72 607.974 251.32C607.254 251.92 606.454 252.22 605.574 252.22C604.694 252.22 603.874 251.92 603.114 251.32C602.394 250.72 602.034 249.92 602.034 248.92ZM615.701 270.22C615.701 267.7 616.301 265.44 617.501 263.44C618.701 261.44 620.341 259.86 622.421 258.7C624.541 257.5 626.981 256.9 629.741 256.9C632.501 256.9 634.901 257.5 636.941 258.7C639.021 259.86 640.621 261.44 641.741 263.44C642.901 265.44 643.481 267.7 643.481 270.22C643.481 272.74 642.901 275.02 641.741 277.06C640.581 279.06 638.961 280.66 636.881 281.86C634.801 283.02 632.381 283.6 629.621 283.6C626.941 283.6 624.561 283.06 622.481 281.98C620.401 280.9 618.741 279.36 617.501 277.36C616.301 275.36 615.701 272.98 615.701 270.22ZM621.821 270.28C621.821 271.88 622.161 273.3 622.841 274.54C623.521 275.78 624.441 276.78 625.601 277.54C626.801 278.26 628.121 278.62 629.561 278.62C631.841 278.62 633.701 277.82 635.141 276.22C636.621 274.62 637.361 272.64 637.361 270.28C637.361 267.92 636.621 265.94 635.141 264.34C633.701 262.7 631.841 261.88 629.561 261.88C628.081 261.88 626.761 262.26 625.601 263.02C624.441 263.78 623.521 264.8 622.841 266.08C622.161 267.36 621.821 268.76 621.821 270.28ZM658.051 283.54C656.211 283.54 654.451 283.22 652.771 282.58C651.091 281.9 649.671 280.94 648.511 279.7L651.091 276.22C652.131 277.22 653.211 277.98 654.331 278.5C655.451 279.02 656.531 279.28 657.571 279.28C658.731 279.28 659.751 279.06 660.631 278.62C661.511 278.14 661.951 277.36 661.951 276.28C661.951 275.4 661.651 274.72 661.051 274.24C660.491 273.76 659.771 273.36 658.891 273.04C658.011 272.72 657.071 272.42 656.071 272.14C651.791 270.74 649.651 268.28 649.651 264.76C649.651 263.48 649.971 262.24 650.611 261.04C651.291 259.84 652.291 258.88 653.611 258.16C654.971 257.4 656.671 257.02 658.711 257.02C660.471 257.02 662.051 257.24 663.451 257.68C664.851 258.08 666.151 258.78 667.351 259.78L665.011 263.44C664.291 262.72 663.431 262.18 662.431 261.82C661.471 261.42 660.591 261.2 659.791 261.16C658.711 261.16 657.771 261.42 656.971 261.94C656.171 262.42 655.771 263.08 655.771 263.92C655.771 264.8 656.051 265.48 656.611 265.96C657.171 266.44 657.891 266.84 658.771 267.16C659.691 267.44 660.611 267.74 661.531 268.06C663.371 268.66 664.891 269.48 666.091 270.52C667.331 271.56 667.951 273.08 667.951 275.08C667.951 276.6 667.591 278 666.871 279.28C666.151 280.56 665.051 281.6 663.571 282.4C662.131 283.16 660.291 283.54 658.051 283.54ZM672.755 279.64C672.755 278.68 673.095 277.88 673.775 277.24C674.495 276.56 675.275 276.22 676.115 276.22C676.875 276.22 677.595 276.56 678.275 277.24C678.995 277.88 679.355 278.68 679.355 279.64C679.355 280.68 678.995 281.5 678.275 282.1C677.595 282.7 676.875 283 676.115 283C675.275 283 674.495 282.7 673.775 282.1C673.095 281.5 672.755 280.68 672.755 279.64ZM47.24 357.34H58.4V362.62H47.24V357.34ZM108.236 369.7C107.556 370.14 106.576 370.68 105.296 371.32C104.056 371.92 102.576 372.44 100.856 372.88C99.1756 373.32 97.3356 373.52 95.3356 373.48C91.9356 373.44 88.8956 372.84 86.2156 371.68C83.5356 370.52 81.2356 368.94 79.3156 366.94C77.4356 364.9 75.9956 362.58 74.9956 359.98C73.9956 357.34 73.4956 354.54 73.4956 351.58C73.4956 348.3 74.0156 345.3 75.0556 342.58C76.1356 339.82 77.6356 337.44 79.5556 335.44C81.4756 333.4 83.7356 331.82 86.3356 330.7C88.9756 329.58 91.8556 329.02 94.9756 329.02C97.6156 329.02 100.016 329.38 102.176 330.1C104.336 330.82 106.156 331.64 107.636 332.56L105.116 338.44C103.956 337.64 102.516 336.88 100.796 336.16C99.1156 335.44 97.2356 335.08 95.1556 335.08C92.3956 335.08 89.8756 335.8 87.5956 337.24C85.3156 338.68 83.4756 340.62 82.0756 343.06C80.7156 345.5 80.0356 348.24 80.0356 351.28C80.0356 354.36 80.6556 357.12 81.8956 359.56C83.1756 362 84.9756 363.92 87.2956 365.32C89.6156 366.72 92.3356 367.42 95.4556 367.42C97.6956 367.42 99.6556 367.08 101.336 366.4C103.056 365.72 104.456 364.94 105.536 364.06L108.236 369.7ZM126.916 373.6C124.556 373.6 122.416 373.1 120.496 372.1C118.576 371.1 117.056 369.64 115.936 367.72C114.816 365.76 114.256 363.34 114.256 360.46C114.256 357.66 114.836 355.26 115.996 353.26C117.196 351.22 118.756 349.66 120.676 348.58C122.596 347.46 124.716 346.9 127.036 346.9C129.356 346.9 131.276 347.38 132.796 348.34C134.316 349.26 135.516 350.38 136.396 351.7L136.816 347.92H142.396V373H136.336V369.04C135.896 369.6 135.236 370.24 134.356 370.96C133.476 371.68 132.416 372.3 131.176 372.82C129.936 373.34 128.516 373.6 126.916 373.6ZM128.536 368.62C130.496 368.62 132.176 368.1 133.576 367.06C134.976 365.98 135.896 364.52 136.336 362.68V357.52C135.856 355.88 134.876 354.52 133.396 353.44C131.956 352.36 130.276 351.82 128.356 351.82C126.916 351.82 125.596 352.18 124.396 352.9C123.196 353.58 122.236 354.56 121.516 355.84C120.796 357.08 120.436 358.52 120.436 360.16C120.436 361.76 120.796 363.2 121.516 364.48C122.276 365.76 123.276 366.78 124.516 367.54C125.756 368.26 127.096 368.62 128.536 368.62ZM159.125 373.54C157.285 373.54 155.525 373.22 153.845 372.58C152.165 371.9 150.745 370.94 149.585 369.7L152.165 366.22C153.205 367.22 154.285 367.98 155.405 368.5C156.525 369.02 157.605 369.28 158.645 369.28C159.805 369.28 160.825 369.06 161.705 368.62C162.585 368.14 163.025 367.36 163.025 366.28C163.025 365.4 162.725 364.72 162.125 364.24C161.565 363.76 160.845 363.36 159.965 363.04C159.085 362.72 158.145 362.42 157.145 362.14C152.865 360.74 150.725 358.28 150.725 354.76C150.725 353.48 151.045 352.24 151.685 351.04C152.365 349.84 153.365 348.88 154.685 348.16C156.045 347.4 157.745 347.02 159.785 347.02C161.545 347.02 163.125 347.24 164.525 347.68C165.925 348.08 167.225 348.78 168.425 349.78L166.085 353.44C165.365 352.72 164.505 352.18 163.505 351.82C162.545 351.42 161.665 351.2 160.865 351.16C159.785 351.16 158.845 351.42 158.045 351.94C157.245 352.42 156.845 353.08 156.845 353.92C156.845 354.8 157.125 355.48 157.685 355.96C158.245 356.44 158.965 356.84 159.845 357.16C160.765 357.44 161.685 357.74 162.605 358.06C164.445 358.66 165.965 359.48 167.165 360.52C168.405 361.56 169.025 363.08 169.025 365.08C169.025 366.6 168.665 368 167.945 369.28C167.225 370.56 166.125 371.6 164.645 372.4C163.205 373.16 161.365 373.54 159.125 373.54ZM174.549 360.22C174.549 357.7 175.149 355.44 176.349 353.44C177.549 351.44 179.189 349.86 181.269 348.7C183.389 347.5 185.829 346.9 188.589 346.9C191.349 346.9 193.749 347.5 195.789 348.7C197.869 349.86 199.469 351.44 200.589 353.44C201.749 355.44 202.329 357.7 202.329 360.22C202.329 362.74 201.749 365.02 200.589 367.06C199.429 369.06 197.809 370.66 195.729 371.86C193.649 373.02 191.229 373.6 188.469 373.6C185.789 373.6 183.409 373.06 181.329 371.98C179.249 370.9 177.589 369.36 176.349 367.36C175.149 365.36 174.549 362.98 174.549 360.22ZM180.669 360.28C180.669 361.88 181.009 363.3 181.689 364.54C182.369 365.78 183.289 366.78 184.449 367.54C185.649 368.26 186.969 368.62 188.409 368.62C190.689 368.62 192.549 367.82 193.989 366.22C195.469 364.62 196.209 362.64 196.209 360.28C196.209 357.92 195.469 355.94 193.989 354.34C192.549 352.7 190.689 351.88 188.409 351.88C186.929 351.88 185.609 352.26 184.449 353.02C183.289 353.78 182.369 354.8 181.689 356.08C181.009 357.36 180.669 358.76 180.669 360.28ZM216.898 373.54C215.058 373.54 213.298 373.22 211.618 372.58C209.938 371.9 208.518 370.94 207.358 369.7L209.938 366.22C210.978 367.22 212.058 367.98 213.178 368.5C214.298 369.02 215.378 369.28 216.418 369.28C217.578 369.28 218.598 369.06 219.478 368.62C220.358 368.14 220.798 367.36 220.798 366.28C220.798 365.4 220.498 364.72 219.898 364.24C219.338 363.76 218.618 363.36 217.738 363.04C216.858 362.72 215.918 362.42 214.918 362.14C210.638 360.74 208.498 358.28 208.498 354.76C208.498 353.48 208.818 352.24 209.458 351.04C210.138 349.84 211.138 348.88 212.458 348.16C213.818 347.4 215.518 347.02 217.558 347.02C219.318 347.02 220.898 347.24 222.298 347.68C223.698 348.08 224.998 348.78 226.198 349.78L223.858 353.44C223.138 352.72 222.278 352.18 221.278 351.82C220.318 351.42 219.438 351.2 218.638 351.16C217.558 351.16 216.618 351.42 215.818 351.94C215.018 352.42 214.618 353.08 214.618 353.92C214.618 354.8 214.898 355.48 215.458 355.96C216.018 356.44 216.738 356.84 217.618 357.16C218.538 357.44 219.458 357.74 220.378 358.06C222.218 358.66 223.738 359.48 224.938 360.52C226.178 361.56 226.798 363.08 226.798 365.08C226.798 366.6 226.438 368 225.718 369.28C224.998 370.56 223.898 371.6 222.418 372.4C220.978 373.16 219.138 373.54 216.898 373.54ZM252.535 373.6C250.175 373.6 248.055 373.06 246.175 371.98C244.295 370.86 242.815 369.3 241.735 367.3C240.655 365.26 240.115 362.86 240.115 360.1C240.115 357.34 240.695 354.98 241.855 353.02C243.015 351.02 244.575 349.5 246.535 348.46C248.535 347.42 250.775 346.9 253.255 346.9C255.095 346.9 256.855 347.26 258.535 347.98C260.215 348.7 261.575 349.72 262.615 351.04V326.38H268.675V373H262.555V369.34C261.355 370.58 259.895 371.6 258.175 372.4C256.495 373.2 254.615 373.6 252.535 373.6ZM254.395 368.5C256.515 368.5 258.275 367.96 259.675 366.88C261.115 365.76 262.075 364.28 262.555 362.44V357.46C262.115 355.78 261.135 354.4 259.615 353.32C258.135 352.24 256.395 351.7 254.395 351.7C252.955 351.7 251.615 352.06 250.375 352.78C249.135 353.46 248.135 354.44 247.375 355.72C246.655 356.96 246.295 358.4 246.295 360.04C246.295 361.64 246.655 363.08 247.375 364.36C248.135 365.6 249.135 366.6 250.375 367.36C251.615 368.12 252.955 368.5 254.395 368.5ZM289.895 373.6C287.015 373.6 284.535 373.04 282.455 371.92C280.375 370.76 278.775 369.18 277.655 367.18C276.535 365.14 275.975 362.84 275.975 360.28C275.975 357.8 276.595 355.56 277.835 353.56C279.115 351.52 280.815 349.9 282.935 348.7C285.055 347.5 287.415 346.9 290.015 346.9C293.375 346.9 296.155 347.88 298.355 349.84C300.595 351.76 302.095 354.48 302.855 358L283.235 364.78C283.955 365.94 284.895 366.84 286.055 367.48C287.255 368.12 288.575 368.44 290.015 368.44C291.095 368.44 292.135 368.26 293.135 367.9C294.135 367.54 295.075 367.02 295.955 366.34L298.715 370.84C297.435 371.68 296.015 372.36 294.455 372.88C292.895 373.36 291.375 373.6 289.895 373.6ZM281.975 359.92C281.975 360.36 281.995 360.78 282.035 361.18L296.015 356.08C295.495 354.92 294.715 353.9 293.675 353.02C292.675 352.14 291.315 351.7 289.595 351.7C287.355 351.7 285.515 352.48 284.075 354.04C282.675 355.56 281.975 357.52 281.975 359.92ZM327.711 373.6C325.351 373.6 323.231 373.06 321.351 371.98C319.471 370.86 317.991 369.3 316.911 367.3C315.831 365.26 315.291 362.86 315.291 360.1C315.291 357.34 315.871 354.98 317.031 353.02C318.191 351.02 319.751 349.5 321.711 348.46C323.711 347.42 325.951 346.9 328.431 346.9C330.271 346.9 332.031 347.26 333.711 347.98C335.391 348.7 336.751 349.72 337.791 351.04V326.38H343.851V373H337.731V369.34C336.531 370.58 335.071 371.6 333.351 372.4C331.671 373.2 329.791 373.6 327.711 373.6ZM329.571 368.5C331.691 368.5 333.451 367.96 334.851 366.88C336.291 365.76 337.251 364.28 337.731 362.44V357.46C337.291 355.78 336.311 354.4 334.791 353.32C333.311 352.24 331.571 351.7 329.571 351.7C328.131 351.7 326.791 352.06 325.551 352.78C324.311 353.46 323.311 354.44 322.551 355.72C321.831 356.96 321.471 358.4 321.471 360.04C321.471 361.64 321.831 363.08 322.551 364.36C323.311 365.6 324.311 366.6 325.551 367.36C326.791 368.12 328.131 368.5 329.571 368.5ZM365.07 373.6C362.19 373.6 359.71 373.04 357.63 371.92C355.55 370.76 353.95 369.18 352.83 367.18C351.71 365.14 351.15 362.84 351.15 360.28C351.15 357.8 351.77 355.56 353.01 353.56C354.29 351.52 355.99 349.9 358.11 348.7C360.23 347.5 362.59 346.9 365.19 346.9C368.55 346.9 371.33 347.88 373.53 349.84C375.77 351.76 377.27 354.48 378.03 358L358.41 364.78C359.13 365.94 360.07 366.84 361.23 367.48C362.43 368.12 363.75 368.44 365.19 368.44C366.27 368.44 367.31 368.26 368.31 367.9C369.31 367.54 370.25 367.02 371.13 366.34L373.89 370.84C372.61 371.68 371.19 372.36 369.63 372.88C368.07 373.36 366.55 373.6 365.07 373.6ZM357.15 359.92C357.15 360.36 357.17 360.78 357.21 361.18L371.19 356.08C370.67 354.92 369.89 353.9 368.85 353.02C367.85 352.14 366.49 351.7 364.77 351.7C362.53 351.7 360.69 352.48 359.25 354.04C357.85 355.56 357.15 357.52 357.15 359.92ZM392.094 373.54C390.254 373.54 388.494 373.22 386.814 372.58C385.134 371.9 383.714 370.94 382.554 369.7L385.134 366.22C386.174 367.22 387.254 367.98 388.374 368.5C389.494 369.02 390.574 369.28 391.614 369.28C392.774 369.28 393.794 369.06 394.674 368.62C395.554 368.14 395.994 367.36 395.994 366.28C395.994 365.4 395.694 364.72 395.094 364.24C394.534 363.76 393.814 363.36 392.934 363.04C392.054 362.72 391.114 362.42 390.114 362.14C385.834 360.74 383.694 358.28 383.694 354.76C383.694 353.48 384.014 352.24 384.654 351.04C385.334 349.84 386.334 348.88 387.654 348.16C389.014 347.4 390.714 347.02 392.754 347.02C394.514 347.02 396.094 347.24 397.494 347.68C398.894 348.08 400.194 348.78 401.394 349.78L399.054 353.44C398.334 352.72 397.474 352.18 396.474 351.82C395.514 351.42 394.634 351.2 393.834 351.16C392.754 351.16 391.814 351.42 391.014 351.94C390.214 352.42 389.814 353.08 389.814 353.92C389.814 354.8 390.094 355.48 390.654 355.96C391.214 356.44 391.934 356.84 392.814 357.16C393.734 357.44 394.654 357.74 395.574 358.06C397.414 358.66 398.934 359.48 400.134 360.52C401.374 361.56 401.994 363.08 401.994 365.08C401.994 366.6 401.634 368 400.914 369.28C400.194 370.56 399.094 371.6 397.614 372.4C396.174 373.16 394.334 373.54 392.094 373.54ZM420.178 373.6C417.818 373.6 415.678 373.1 413.757 372.1C411.838 371.1 410.318 369.64 409.198 367.72C408.078 365.76 407.518 363.34 407.518 360.46C407.518 357.66 408.098 355.26 409.258 353.26C410.458 351.22 412.018 349.66 413.938 348.58C415.858 347.46 417.978 346.9 420.298 346.9C422.618 346.9 424.538 347.38 426.058 348.34C427.578 349.26 428.778 350.38 429.658 351.7L430.078 347.92H435.658V373H429.598V369.04C429.158 369.6 428.498 370.24 427.618 370.96C426.738 371.68 425.678 372.3 424.438 372.82C423.198 373.34 421.778 373.6 420.178 373.6ZM421.798 368.62C423.758 368.62 425.438 368.1 426.838 367.06C428.238 365.98 429.158 364.52 429.598 362.68V357.52C429.118 355.88 428.138 354.52 426.658 353.44C425.218 352.36 423.538 351.82 421.618 351.82C420.178 351.82 418.858 352.18 417.658 352.9C416.458 353.58 415.498 354.56 414.778 355.84C414.058 357.08 413.698 358.52 413.698 360.16C413.698 361.76 414.058 363.2 414.778 364.48C415.538 365.76 416.538 366.78 417.778 367.54C419.018 368.26 420.358 368.62 421.798 368.62ZM452.387 373.54C450.547 373.54 448.787 373.22 447.107 372.58C445.427 371.9 444.007 370.94 442.847 369.7L445.427 366.22C446.467 367.22 447.547 367.98 448.667 368.5C449.787 369.02 450.867 369.28 451.907 369.28C453.067 369.28 454.087 369.06 454.967 368.62C455.847 368.14 456.287 367.36 456.287 366.28C456.287 365.4 455.987 364.72 455.387 364.24C454.827 363.76 454.107 363.36 453.227 363.04C452.347 362.72 451.407 362.42 450.407 362.14C446.127 360.74 443.987 358.28 443.987 354.76C443.987 353.48 444.307 352.24 444.947 351.04C445.627 349.84 446.627 348.88 447.947 348.16C449.307 347.4 451.007 347.02 453.047 347.02C454.807 347.02 456.387 347.24 457.787 347.68C459.187 348.08 460.487 348.78 461.687 349.78L459.347 353.44C458.627 352.72 457.767 352.18 456.767 351.82C455.807 351.42 454.927 351.2 454.127 351.16C453.047 351.16 452.107 351.42 451.307 351.94C450.507 352.42 450.107 353.08 450.107 353.92C450.107 354.8 450.387 355.48 450.947 355.96C451.507 356.44 452.227 356.84 453.107 357.16C454.027 357.44 454.947 357.74 455.867 358.06C457.707 358.66 459.227 359.48 460.427 360.52C461.667 361.56 462.287 363.08 462.287 365.08C462.287 366.6 461.927 368 461.207 369.28C460.487 370.56 459.387 371.6 457.907 372.4C456.467 373.16 454.627 373.54 452.387 373.54ZM472.37 336.94H478.49V347.98H485.21V352.72H478.49V373H472.37V352.72H467.93V347.98H472.37V336.94ZM497.285 347.92L497.765 353.86C498.485 352.42 499.445 351.18 500.645 350.14C501.845 349.1 503.085 348.3 504.365 347.74C505.685 347.18 506.805 346.9 507.725 346.9L507.425 352.9C505.545 352.78 503.885 353.14 502.445 353.98C501.045 354.82 499.945 355.94 499.145 357.34C498.345 358.74 497.945 360.24 497.945 361.84V373H491.885V347.92H497.285ZM525.441 373.6C522.561 373.6 520.081 373.04 518.001 371.92C515.921 370.76 514.321 369.18 513.201 367.18C512.081 365.14 511.521 362.84 511.521 360.28C511.521 357.8 512.141 355.56 513.381 353.56C514.661 351.52 516.361 349.9 518.481 348.7C520.601 347.5 522.961 346.9 525.561 346.9C528.921 346.9 531.701 347.88 533.901 349.84C536.141 351.76 537.641 354.48 538.401 358L518.781 364.78C519.501 365.94 520.441 366.84 521.601 367.48C522.801 368.12 524.121 368.44 525.561 368.44C526.641 368.44 527.681 368.26 528.681 367.9C529.681 367.54 530.621 367.02 531.501 366.34L534.261 370.84C532.981 371.68 531.561 372.36 530.001 372.88C528.441 373.36 526.921 373.6 525.441 373.6ZM517.521 359.92C517.521 360.36 517.541 360.78 517.581 361.18L531.561 356.08C531.041 354.92 530.261 353.9 529.221 353.02C528.221 352.14 526.861 351.7 525.141 351.7C522.901 351.7 521.061 352.48 519.621 354.04C518.221 355.56 517.521 357.52 517.521 359.92ZM542.325 369.64C542.325 368.68 542.665 367.88 543.345 367.24C544.065 366.56 544.845 366.22 545.685 366.22C546.445 366.22 547.165 366.56 547.845 367.24C548.565 367.88 548.925 368.68 548.925 369.64C548.925 370.68 548.565 371.5 547.845 372.1C547.165 372.7 546.445 373 545.685 373C544.845 373 544.065 372.7 543.345 372.1C542.665 371.5 542.325 370.68 542.325 369.64Z" fill="white"/>
</g>
<defs>
<filter id="filter0_d" x="0" y="0" width="763" height="475" filterUnits="userSpaceOnUse" color-interpolation-filters="sRGB">
<feFlood flood-opacity="0" result="BackgroundImageFix"/>
<feColorMatrix in="SourceAlpha" type="matrix" values="0 0 0 0 0 0 0 0 0 0 0 0 0 0 0 0 0 0 127 0"/>
<feOffset dy="4"/>
<feGaussianBlur stdDeviation="2"/>
<feColorMatrix type="matrix" values="0 0 0 0 0 0 0 0 0 0 0 0 0 0 0 0 0 0 0.25 0"/>
<feBlend mode="normal" in2="BackgroundImageFix" result="effect1_dropShadow"/>
<feBlend mode="normal" in="SourceGraphic" in2="effect1_dropShadow" result="shape"/>
</filter>
<linearGradient id="paint0_linear" x1="473.5" y1="223" x2="1377" y2="796.5" gradientUnits="userSpaceOnUse">
<stop stop-color="#007B31"/>
<stop offset="1" stop-color="#007B31" stop-opacity="0"/>
</linearGradient>
<clipPath id="clip0">
<rect width="755" height="467" fill="white" transform="translate(4)"/>
</clipPath>
</defs>
</svg>
