<svg width="855" height="496" viewBox="0 0 855 496" fill="none" xmlns="http://www.w3.org/2000/svg">
<g filter="url(#filter0_d)">
<rect width="847" height="488" transform="translate(4)" fill="#4800E0" fill-opacity="0.77"/>
<path d="M45.68 103L64.82 57.7H65.18L84.32 103H77.06L72.74 92.08H56.42L51.92 103H45.68ZM58.58 86.68H70.64L64.76 71.68L58.58 86.68ZM98.0117 103.54C96.1717 103.54 94.4117 103.22 92.7317 102.58C91.0517 101.9 89.6317 100.94 88.4717 99.7L91.0517 96.22C92.0917 97.22 93.1717 97.98 94.2917 98.5C95.4117 99.02 96.4917 99.28 97.5317 99.28C98.6917 99.28 99.7117 99.06 100.592 98.62C101.472 98.14 101.912 97.36 101.912 96.28C101.912 95.4 101.612 94.72 101.012 94.24C100.452 93.76 99.7317 93.36 98.8517 93.04C97.9717 92.72 97.0317 92.42 96.0317 92.14C91.7517 90.74 89.6117 88.28 89.6117 84.76C89.6117 83.48 89.9317 82.24 90.5717 81.04C91.2517 79.84 92.2517 78.88 93.5717 78.16C94.9317 77.4 96.6317 77.02 98.6717 77.02C100.432 77.02 102.012 77.24 103.412 77.68C104.812 78.08 106.112 78.78 107.312 79.78L104.972 83.44C104.252 82.72 103.392 82.18 102.392 81.82C101.432 81.42 100.552 81.2 99.7517 81.16C98.6717 81.16 97.7317 81.42 96.9317 81.94C96.1317 82.42 95.7317 83.08 95.7317 83.92C95.7317 84.8 96.0117 85.48 96.5717 85.96C97.1317 86.44 97.8517 86.84 98.7317 87.16C99.6517 87.44 100.572 87.74 101.492 88.06C103.332 88.66 104.852 89.48 106.052 90.52C107.292 91.56 107.912 93.08 107.912 95.08C107.912 96.6 107.552 98 106.832 99.28C106.112 100.56 105.012 101.6 103.532 102.4C102.092 103.16 100.252 103.54 98.0117 103.54ZM123.635 104.02C121.315 104.02 119.395 103.32 117.875 101.92C116.395 100.52 115.635 98.72 115.595 96.52V77.92H121.655V94.36C121.735 95.68 122.115 96.76 122.795 97.6C123.475 98.4 124.555 98.82 126.035 98.86C127.395 98.86 128.615 98.46 129.695 97.66C130.775 96.82 131.615 95.68 132.215 94.24C132.855 92.8 133.175 91.18 133.175 89.38V77.92H139.235V103H133.775L133.415 98.38C132.575 100.02 131.275 101.38 129.515 102.46C127.795 103.5 125.835 104.02 123.635 104.02ZM154.161 77.92L154.581 82.72C155.381 80.96 156.661 79.56 158.421 78.52C160.181 77.48 162.241 76.96 164.601 76.96C166.921 76.96 168.841 77.66 170.361 79.06C171.881 80.46 172.681 82.26 172.761 84.46V103H166.701V86.56C166.661 85.28 166.281 84.24 165.561 83.44C164.841 82.6 163.721 82.16 162.201 82.12C160.081 82.12 158.301 83 156.861 84.76C155.461 86.52 154.761 88.78 154.761 91.54V103H148.701V77.92H154.161ZM184.675 66.94H190.795V77.98H197.515V82.72H190.795V103H184.675V82.72H180.235V77.98H184.675V66.94ZM202.029 90.22C202.029 87.7 202.629 85.44 203.829 83.44C205.029 81.44 206.669 79.86 208.749 78.7C210.869 77.5 213.309 76.9 216.069 76.9C218.829 76.9 221.229 77.5 223.269 78.7C225.349 79.86 226.949 81.44 228.069 83.44C229.229 85.44 229.809 87.7 229.809 90.22C229.809 92.74 229.229 95.02 228.069 97.06C226.909 99.06 225.289 100.66 223.209 101.86C221.129 103.02 218.709 103.6 215.949 103.6C213.269 103.6 210.889 103.06 208.809 101.98C206.729 100.9 205.069 99.36 203.829 97.36C202.629 95.36 202.029 92.98 202.029 90.22ZM208.149 90.28C208.149 91.88 208.489 93.3 209.169 94.54C209.849 95.78 210.769 96.78 211.929 97.54C213.129 98.26 214.449 98.62 215.889 98.62C218.169 98.62 220.029 97.82 221.469 96.22C222.949 94.62 223.689 92.64 223.689 90.28C223.689 87.92 222.949 85.94 221.469 84.34C220.029 82.7 218.169 81.88 215.889 81.88C214.409 81.88 213.089 82.26 211.929 83.02C210.769 83.78 209.849 84.8 209.169 86.08C208.489 87.36 208.149 88.76 208.149 90.28ZM244.379 103.54C242.539 103.54 240.779 103.22 239.099 102.58C237.419 101.9 235.999 100.94 234.839 99.7L237.419 96.22C238.459 97.22 239.539 97.98 240.659 98.5C241.779 99.02 242.859 99.28 243.899 99.28C245.059 99.28 246.079 99.06 246.959 98.62C247.839 98.14 248.279 97.36 248.279 96.28C248.279 95.4 247.979 94.72 247.379 94.24C246.819 93.76 246.099 93.36 245.219 93.04C244.339 92.72 243.399 92.42 242.399 92.14C238.119 90.74 235.979 88.28 235.979 84.76C235.979 83.48 236.299 82.24 236.939 81.04C237.619 79.84 238.619 78.88 239.939 78.16C241.299 77.4 242.999 77.02 245.039 77.02C246.799 77.02 248.379 77.24 249.779 77.68C251.179 78.08 252.479 78.78 253.679 79.78L251.339 83.44C250.619 82.72 249.759 82.18 248.759 81.82C247.799 81.42 246.919 81.2 246.119 81.16C245.039 81.16 244.099 81.42 243.299 81.94C242.499 82.42 242.099 83.08 242.099 83.92C242.099 84.8 242.379 85.48 242.939 85.96C243.499 86.44 244.219 86.84 245.099 87.16C246.019 87.44 246.939 87.74 247.859 88.06C249.699 88.66 251.219 89.48 252.419 90.52C253.659 91.56 254.279 93.08 254.279 95.08C254.279 96.6 253.919 98 253.199 99.28C252.479 100.56 251.379 101.6 249.899 102.4C248.459 103.16 246.619 103.54 244.379 103.54ZM269.756 77.92H275.816V103H269.756V77.92ZM269.456 68.92C269.456 68 269.816 67.22 270.536 66.58C271.296 65.94 272.116 65.62 272.996 65.62C273.876 65.62 274.676 65.94 275.396 66.58C276.116 67.22 276.476 68 276.476 68.92C276.476 69.92 276.116 70.72 275.396 71.32C274.676 71.92 273.876 72.22 272.996 72.22C272.116 72.22 271.296 71.92 270.536 71.32C269.816 70.72 269.456 69.92 269.456 68.92ZM290.743 77.92L291.163 82.72C291.963 80.96 293.243 79.56 295.003 78.52C296.763 77.48 298.823 76.96 301.183 76.96C303.503 76.96 305.423 77.66 306.943 79.06C308.463 80.46 309.263 82.26 309.343 84.46V103H303.283V86.56C303.243 85.28 302.863 84.24 302.143 83.44C301.423 82.6 300.303 82.16 298.783 82.12C296.663 82.12 294.883 83 293.443 84.76C292.043 86.52 291.343 88.78 291.343 91.54V103H285.283V77.92H290.743ZM321.257 66.94H327.377V77.98H334.097V82.72H327.377V103H321.257V82.72H316.817V77.98H321.257V66.94ZM352.531 103.6C349.651 103.6 347.171 103.04 345.091 101.92C343.011 100.76 341.411 99.18 340.291 97.18C339.171 95.14 338.611 92.84 338.611 90.28C338.611 87.8 339.231 85.56 340.471 83.56C341.751 81.52 343.451 79.9 345.571 78.7C347.691 77.5 350.051 76.9 352.651 76.9C356.011 76.9 358.791 77.88 360.991 79.84C363.231 81.76 364.731 84.48 365.491 88L345.871 94.78C346.591 95.94 347.531 96.84 348.691 97.48C349.891 98.12 351.211 98.44 352.651 98.44C353.731 98.44 354.771 98.26 355.771 97.9C356.771 97.54 357.711 97.02 358.591 96.34L361.351 100.84C360.071 101.68 358.651 102.36 357.091 102.88C355.531 103.36 354.011 103.6 352.531 103.6ZM344.611 89.92C344.611 90.36 344.631 90.78 344.671 91.18L358.651 86.08C358.131 84.92 357.351 83.9 356.311 83.02C355.311 82.14 353.951 81.7 352.231 81.7C349.991 81.7 348.151 82.48 346.711 84.04C345.311 85.56 344.611 87.52 344.611 89.92ZM377.695 77.92L378.175 83.86C378.895 82.42 379.855 81.18 381.055 80.14C382.255 79.1 383.495 78.3 384.775 77.74C386.095 77.18 387.215 76.9 388.135 76.9L387.835 82.9C385.955 82.78 384.295 83.14 382.855 83.98C381.455 84.82 380.355 85.94 379.555 87.34C378.755 88.74 378.355 90.24 378.355 91.84V103H372.295V77.92H377.695ZM400.606 77.92L401.026 82.72C401.826 80.96 403.106 79.56 404.866 78.52C406.626 77.48 408.686 76.96 411.046 76.96C413.366 76.96 415.286 77.66 416.806 79.06C418.326 80.46 419.126 82.26 419.206 84.46V103H413.146V86.56C413.106 85.28 412.726 84.24 412.006 83.44C411.286 82.6 410.166 82.16 408.646 82.12C406.526 82.12 404.746 83 403.306 84.76C401.906 86.52 401.206 88.78 401.206 91.54V103H395.146V77.92H400.606ZM439.22 103.6C436.86 103.6 434.72 103.1 432.8 102.1C430.88 101.1 429.36 99.64 428.24 97.72C427.12 95.76 426.56 93.34 426.56 90.46C426.56 87.66 427.14 85.26 428.3 83.26C429.5 81.22 431.06 79.66 432.98 78.58C434.9 77.46 437.02 76.9 439.34 76.9C441.66 76.9 443.58 77.38 445.1 78.34C446.62 79.26 447.82 80.38 448.7 81.7L449.12 77.92H454.7V103H448.64V99.04C448.2 99.6 447.54 100.24 446.66 100.96C445.78 101.68 444.72 102.3 443.48 102.82C442.24 103.34 440.82 103.6 439.22 103.6ZM440.84 98.62C442.8 98.62 444.48 98.1 445.88 97.06C447.28 95.98 448.2 94.52 448.64 92.68V87.52C448.16 85.88 447.18 84.52 445.7 83.44C444.26 82.36 442.58 81.82 440.66 81.82C439.22 81.82 437.9 82.18 436.7 82.9C435.5 83.58 434.54 84.56 433.82 85.84C433.1 87.08 432.74 88.52 432.74 90.16C432.74 91.76 433.1 93.2 433.82 94.48C434.58 95.76 435.58 96.78 436.82 97.54C438.06 98.26 439.4 98.62 440.84 98.62ZM484.69 100.66C483.53 101.58 482.17 102.3 480.61 102.82C479.05 103.34 477.47 103.6 475.87 103.6C473.15 103.6 470.73 103.06 468.61 101.98C466.53 100.9 464.91 99.38 463.75 97.42C462.59 95.46 462.01 93.14 462.01 90.46C462.01 87.78 462.63 85.46 463.87 83.5C465.11 81.5 466.73 79.98 468.73 78.94C470.77 77.86 472.95 77.32 475.27 77.32C477.35 77.32 479.17 77.6 480.73 78.16C482.33 78.72 483.71 79.5 484.87 80.5L481.87 84.4C481.19 83.84 480.33 83.34 479.29 82.9C478.25 82.46 477.07 82.24 475.75 82.24C474.31 82.24 473.01 82.6 471.85 83.32C470.69 84.04 469.77 85.02 469.09 86.26C468.41 87.5 468.07 88.9 468.07 90.46C468.07 91.98 468.41 93.36 469.09 94.6C469.81 95.84 470.79 96.82 472.03 97.54C473.31 98.26 474.75 98.62 476.35 98.62C477.39 98.62 478.35 98.48 479.23 98.2C480.15 97.88 480.95 97.44 481.63 96.88L484.69 100.66ZM491.767 77.92H497.827V103H491.767V77.92ZM491.467 68.92C491.467 68 491.827 67.22 492.547 66.58C493.307 65.94 494.127 65.62 495.007 65.62C495.887 65.62 496.687 65.94 497.407 66.58C498.127 67.22 498.487 68 498.487 68.92C498.487 69.92 498.127 70.72 497.407 71.32C496.687 71.92 495.887 72.22 495.007 72.22C494.127 72.22 493.307 71.92 492.547 71.32C491.827 70.72 491.467 69.92 491.467 68.92ZM505.135 90.22C505.135 87.7 505.735 85.44 506.935 83.44C508.135 81.44 509.775 79.86 511.855 78.7C513.975 77.5 516.415 76.9 519.175 76.9C521.935 76.9 524.335 77.5 526.375 78.7C528.455 79.86 530.055 81.44 531.175 83.44C532.335 85.44 532.915 87.7 532.915 90.22C532.915 92.74 532.335 95.02 531.175 97.06C530.015 99.06 528.395 100.66 526.315 101.86C524.235 103.02 521.815 103.6 519.055 103.6C516.375 103.6 513.995 103.06 511.915 101.98C509.835 100.9 508.175 99.36 506.935 97.36C505.735 95.36 505.135 92.98 505.135 90.22ZM511.255 90.28C511.255 91.88 511.595 93.3 512.275 94.54C512.955 95.78 513.875 96.78 515.035 97.54C516.235 98.26 517.555 98.62 518.995 98.62C521.275 98.62 523.135 97.82 524.575 96.22C526.055 94.62 526.795 92.64 526.795 90.28C526.795 87.92 526.055 85.94 524.575 84.34C523.135 82.7 521.275 81.88 518.995 81.88C517.515 81.88 516.195 82.26 515.035 83.02C513.875 83.78 512.955 84.8 512.275 86.08C511.595 87.36 511.255 88.76 511.255 90.28ZM545.684 77.92L546.104 82.72C546.904 80.96 548.184 79.56 549.944 78.52C551.704 77.48 553.764 76.96 556.124 76.96C558.444 76.96 560.364 77.66 561.884 79.06C563.404 80.46 564.204 82.26 564.284 84.46V103H558.224V86.56C558.184 85.28 557.804 84.24 557.084 83.44C556.364 82.6 555.244 82.16 553.724 82.12C551.604 82.12 549.824 83 548.384 84.76C546.984 86.52 546.284 88.78 546.284 91.54V103H540.224V77.92H545.684ZM584.299 103.6C581.939 103.6 579.799 103.1 577.879 102.1C575.959 101.1 574.439 99.64 573.319 97.72C572.199 95.76 571.639 93.34 571.639 90.46C571.639 87.66 572.219 85.26 573.379 83.26C574.579 81.22 576.139 79.66 578.059 78.58C579.979 77.46 582.099 76.9 584.419 76.9C586.739 76.9 588.659 77.38 590.179 78.34C591.699 79.26 592.899 80.38 593.779 81.7L594.199 77.92H599.779V103H593.719V99.04C593.279 99.6 592.619 100.24 591.739 100.96C590.859 101.68 589.799 102.3 588.559 102.82C587.319 103.34 585.899 103.6 584.299 103.6ZM585.919 98.62C587.879 98.62 589.559 98.1 590.959 97.06C592.359 95.98 593.279 94.52 593.719 92.68V87.52C593.239 85.88 592.259 84.52 590.779 83.44C589.339 82.36 587.659 81.82 585.739 81.82C584.299 81.82 582.979 82.18 581.779 82.9C580.579 83.58 579.619 84.56 578.899 85.84C578.179 87.08 577.819 88.52 577.819 90.16C577.819 91.76 578.179 93.2 578.899 94.48C579.659 95.76 580.659 96.78 581.899 97.54C583.139 98.26 584.479 98.62 585.919 98.62ZM609.248 56.38H615.308V103H609.248V56.38ZM636.535 103.6C633.655 103.6 631.175 103.04 629.095 101.92C627.015 100.76 625.415 99.18 624.295 97.18C623.175 95.14 622.615 92.84 622.615 90.28C622.615 87.8 623.235 85.56 624.475 83.56C625.755 81.52 627.455 79.9 629.575 78.7C631.695 77.5 634.055 76.9 636.655 76.9C640.015 76.9 642.795 77.88 644.995 79.84C647.235 81.76 648.735 84.48 649.495 88L629.875 94.78C630.595 95.94 631.535 96.84 632.695 97.48C633.895 98.12 635.215 98.44 636.655 98.44C637.735 98.44 638.775 98.26 639.775 97.9C640.775 97.54 641.715 97.02 642.595 96.34L645.355 100.84C644.075 101.68 642.655 102.36 641.095 102.88C639.535 103.36 638.015 103.6 636.535 103.6ZM628.615 89.92C628.615 90.36 628.635 90.78 628.675 91.18L642.655 86.08C642.135 84.92 641.355 83.9 640.315 83.02C639.315 82.14 637.955 81.7 636.235 81.7C633.995 81.7 632.155 82.48 630.715 84.04C629.315 85.56 628.615 87.52 628.615 89.92ZM663.559 103.54C661.719 103.54 659.959 103.22 658.279 102.58C656.599 101.9 655.179 100.94 654.019 99.7L656.599 96.22C657.639 97.22 658.719 97.98 659.839 98.5C660.959 99.02 662.039 99.28 663.079 99.28C664.239 99.28 665.259 99.06 666.139 98.62C667.019 98.14 667.459 97.36 667.459 96.28C667.459 95.4 667.159 94.72 666.559 94.24C665.999 93.76 665.279 93.36 664.399 93.04C663.519 92.72 662.579 92.42 661.579 92.14C657.299 90.74 655.159 88.28 655.159 84.76C655.159 83.48 655.479 82.24 656.119 81.04C656.799 79.84 657.799 78.88 659.119 78.16C660.479 77.4 662.179 77.02 664.219 77.02C665.979 77.02 667.559 77.24 668.959 77.68C670.359 78.08 671.659 78.78 672.859 79.78L670.519 83.44C669.799 82.72 668.939 82.18 667.939 81.82C666.979 81.42 666.099 81.2 665.299 81.16C664.219 81.16 663.279 81.42 662.479 81.94C661.679 82.42 661.279 83.08 661.279 83.92C661.279 84.8 661.559 85.48 662.119 85.96C662.679 86.44 663.399 86.84 664.279 87.16C665.199 87.44 666.119 87.74 667.039 88.06C668.879 88.66 670.399 89.48 671.599 90.52C672.839 91.56 673.459 93.08 673.459 95.08C673.459 96.6 673.099 98 672.379 99.28C671.659 100.56 670.559 101.6 669.079 102.4C667.639 103.16 665.799 103.54 663.559 103.54ZM678.262 99.64C678.262 98.68 678.602 97.88 679.282 97.24C680.002 96.56 680.782 96.22 681.622 96.22C682.382 96.22 683.102 96.56 683.782 97.24C684.502 97.88 684.862 98.68 684.862 99.64C684.862 100.68 684.502 101.5 683.782 102.1C683.102 102.7 682.382 103 681.622 103C680.782 103 680.002 102.7 679.282 102.1C678.602 101.5 678.262 100.68 678.262 99.64ZM72.8 157.72C71.28 156.92 69.64 156.24 67.88 155.68C66.12 155.12 64.42 154.84 62.78 154.84C60.5 154.84 58.7 155.36 57.38 156.4C56.06 157.4 55.4 158.8 55.4 160.6C55.4 161.88 55.84 162.98 56.72 163.9C57.6 164.78 58.74 165.58 60.14 166.3C61.54 166.98 63.02 167.6 64.58 168.16C66.38 168.84 68.12 169.66 69.8 170.62C71.48 171.58 72.86 172.9 73.94 174.58C75.02 176.22 75.56 178.4 75.56 181.12C75.56 183.44 74.98 185.54 73.82 187.42C72.66 189.26 71 190.74 68.84 191.86C66.72 192.94 64.16 193.48 61.16 193.48C58.36 193.48 55.7 193.04 53.18 192.16C50.7 191.28 48.56 190.2 46.76 188.92L49.58 183.94C50.98 185.02 52.7 185.96 54.74 186.76C56.78 187.56 58.72 187.96 60.56 187.96C61.92 187.96 63.24 187.74 64.52 187.3C65.8 186.82 66.86 186.08 67.7 185.08C68.58 184.08 69.02 182.76 69.02 181.12C69.02 179.76 68.64 178.6 67.88 177.64C67.12 176.68 66.12 175.86 64.88 175.18C63.68 174.5 62.38 173.9 60.98 173.38C59.62 172.86 58.22 172.3 56.78 171.7C55.38 171.06 54.08 170.28 52.88 169.36C51.72 168.44 50.76 167.32 50 166C49.28 164.64 48.92 163 48.92 161.08C48.92 158.76 49.46 156.74 50.54 155.02C51.66 153.26 53.18 151.9 55.1 150.94C57.06 149.94 59.32 149.38 61.88 149.26C64.76 149.26 67.28 149.62 69.44 150.34C71.6 151.02 73.5 151.86 75.14 152.86L72.8 157.72ZM91.7019 194.02C89.3819 194.02 87.4619 193.32 85.9419 191.92C84.4619 190.52 83.7019 188.72 83.6619 186.52V167.92H89.7219V184.36C89.8019 185.68 90.1819 186.76 90.8619 187.6C91.5419 188.4 92.6219 188.82 94.1019 188.86C95.4619 188.86 96.6819 188.46 97.7619 187.66C98.8419 186.82 99.6819 185.68 100.282 184.24C100.922 182.8 101.242 181.18 101.242 179.38V167.92H107.302V193H101.842L101.482 188.38C100.642 190.02 99.3419 191.38 97.5819 192.46C95.8619 193.5 93.9019 194.02 91.7019 194.02ZM124.027 193.54C122.187 193.54 120.427 193.22 118.747 192.58C117.067 191.9 115.647 190.94 114.487 189.7L117.067 186.22C118.107 187.22 119.187 187.98 120.307 188.5C121.427 189.02 122.507 189.28 123.547 189.28C124.707 189.28 125.727 189.06 126.607 188.62C127.487 188.14 127.927 187.36 127.927 186.28C127.927 185.4 127.627 184.72 127.027 184.24C126.467 183.76 125.747 183.36 124.867 183.04C123.987 182.72 123.047 182.42 122.047 182.14C117.767 180.74 115.627 178.28 115.627 174.76C115.627 173.48 115.947 172.24 116.587 171.04C117.267 169.84 118.267 168.88 119.587 168.16C120.947 167.4 122.647 167.02 124.687 167.02C126.447 167.02 128.027 167.24 129.427 167.68C130.827 168.08 132.127 168.78 133.327 169.78L130.987 173.44C130.267 172.72 129.407 172.18 128.407 171.82C127.447 171.42 126.567 171.2 125.767 171.16C124.687 171.16 123.747 171.42 122.947 171.94C122.147 172.42 121.747 173.08 121.747 173.92C121.747 174.8 122.027 175.48 122.587 175.96C123.147 176.44 123.867 176.84 124.747 177.16C125.667 177.44 126.587 177.74 127.507 178.06C129.347 178.66 130.867 179.48 132.067 180.52C133.307 181.56 133.927 183.08 133.927 185.08C133.927 186.6 133.567 188 132.847 189.28C132.127 190.56 131.027 191.6 129.547 192.4C128.107 193.16 126.267 193.54 124.027 193.54ZM144.011 156.94H150.131V167.98H156.851V172.72H150.131V193H144.011V172.72H139.571V167.98H144.011V156.94ZM168.925 167.92L169.405 173.86C170.125 172.42 171.085 171.18 172.285 170.14C173.485 169.1 174.725 168.3 176.005 167.74C177.325 167.18 178.445 166.9 179.365 166.9L179.065 172.9C177.185 172.78 175.525 173.14 174.085 173.98C172.685 174.82 171.585 175.94 170.785 177.34C169.985 178.74 169.585 180.24 169.585 181.84V193H163.525V167.92H168.925ZM196.232 193.6C193.872 193.6 191.732 193.1 189.812 192.1C187.892 191.1 186.372 189.64 185.252 187.72C184.132 185.76 183.572 183.34 183.572 180.46C183.572 177.66 184.152 175.26 185.312 173.26C186.512 171.22 188.072 169.66 189.992 168.58C191.912 167.46 194.032 166.9 196.352 166.9C198.672 166.9 200.592 167.38 202.112 168.34C203.632 169.26 204.832 170.38 205.712 171.7L206.132 167.92H211.712V193H205.652V189.04C205.212 189.6 204.552 190.24 203.672 190.96C202.792 191.68 201.732 192.3 200.492 192.82C199.252 193.34 197.832 193.6 196.232 193.6ZM197.852 188.62C199.812 188.62 201.492 188.1 202.892 187.06C204.292 185.98 205.212 184.52 205.652 182.68V177.52C205.172 175.88 204.192 174.52 202.712 173.44C201.272 172.36 199.592 171.82 197.672 171.82C196.232 171.82 194.912 172.18 193.712 172.9C192.512 173.58 191.552 174.56 190.832 175.84C190.112 177.08 189.752 178.52 189.752 180.16C189.752 181.76 190.112 183.2 190.832 184.48C191.592 185.76 192.592 186.78 193.832 187.54C195.072 188.26 196.412 188.62 197.852 188.62ZM241.701 190.66C240.541 191.58 239.181 192.3 237.621 192.82C236.061 193.34 234.481 193.6 232.881 193.6C230.161 193.6 227.741 193.06 225.621 191.98C223.541 190.9 221.921 189.38 220.761 187.42C219.601 185.46 219.021 183.14 219.021 180.46C219.021 177.78 219.641 175.46 220.881 173.5C222.121 171.5 223.741 169.98 225.741 168.94C227.781 167.86 229.961 167.32 232.281 167.32C234.361 167.32 236.181 167.6 237.741 168.16C239.341 168.72 240.721 169.5 241.881 170.5L238.881 174.4C238.201 173.84 237.341 173.34 236.301 172.9C235.261 172.46 234.081 172.24 232.761 172.24C231.321 172.24 230.021 172.6 228.861 173.32C227.701 174.04 226.781 175.02 226.101 176.26C225.421 177.5 225.081 178.9 225.081 180.46C225.081 181.98 225.421 183.36 226.101 184.6C226.821 185.84 227.801 186.82 229.041 187.54C230.321 188.26 231.761 188.62 233.361 188.62C234.401 188.62 235.361 188.48 236.241 188.2C237.161 187.88 237.961 187.44 238.641 186.88L241.701 190.66ZM269.299 190.66C268.139 191.58 266.779 192.3 265.219 192.82C263.659 193.34 262.079 193.6 260.479 193.6C257.759 193.6 255.339 193.06 253.219 191.98C251.139 190.9 249.519 189.38 248.359 187.42C247.199 185.46 246.619 183.14 246.619 180.46C246.619 177.78 247.239 175.46 248.479 173.5C249.719 171.5 251.339 169.98 253.339 168.94C255.379 167.86 257.559 167.32 259.879 167.32C261.959 167.32 263.779 167.6 265.339 168.16C266.939 168.72 268.319 169.5 269.479 170.5L266.479 174.4C265.799 173.84 264.939 173.34 263.899 172.9C262.859 172.46 261.679 172.24 260.359 172.24C258.919 172.24 257.619 172.6 256.459 173.32C255.299 174.04 254.379 175.02 253.699 176.26C253.019 177.5 252.679 178.9 252.679 180.46C252.679 181.98 253.019 183.36 253.699 184.6C254.419 185.84 255.399 186.82 256.639 187.54C257.919 188.26 259.359 188.62 260.959 188.62C261.999 188.62 262.959 188.48 263.839 188.2C264.759 187.88 265.559 187.44 266.239 186.88L269.299 190.66ZM276.377 167.92H282.437V193H276.377V167.92ZM276.077 158.92C276.077 158 276.437 157.22 277.157 156.58C277.917 155.94 278.737 155.62 279.617 155.62C280.497 155.62 281.297 155.94 282.017 156.58C282.737 157.22 283.097 158 283.097 158.92C283.097 159.92 282.737 160.72 282.017 161.32C281.297 161.92 280.497 162.22 279.617 162.22C278.737 162.22 277.917 161.92 277.157 161.32C276.437 160.72 276.077 159.92 276.077 158.92ZM289.744 180.22C289.744 177.7 290.344 175.44 291.544 173.44C292.744 171.44 294.384 169.86 296.464 168.7C298.584 167.5 301.024 166.9 303.784 166.9C306.544 166.9 308.944 167.5 310.984 168.7C313.064 169.86 314.664 171.44 315.784 173.44C316.944 175.44 317.524 177.7 317.524 180.22C317.524 182.74 316.944 185.02 315.784 187.06C314.624 189.06 313.004 190.66 310.924 191.86C308.844 193.02 306.424 193.6 303.664 193.6C300.984 193.6 298.604 193.06 296.524 191.98C294.444 190.9 292.784 189.36 291.544 187.36C290.344 185.36 289.744 182.98 289.744 180.22ZM295.864 180.28C295.864 181.88 296.204 183.3 296.884 184.54C297.564 185.78 298.484 186.78 299.644 187.54C300.844 188.26 302.164 188.62 303.604 188.62C305.884 188.62 307.744 187.82 309.184 186.22C310.664 184.62 311.404 182.64 311.404 180.28C311.404 177.92 310.664 175.94 309.184 174.34C307.744 172.7 305.884 171.88 303.604 171.88C302.124 171.88 300.804 172.26 299.644 173.02C298.484 173.78 297.564 174.8 296.884 176.08C296.204 177.36 295.864 178.76 295.864 180.28ZM313.504 155.32L305.704 163.36H301.924L306.784 155.32H313.504ZM330.294 167.92L330.714 172.72C331.514 170.96 332.794 169.56 334.554 168.52C336.314 167.48 338.374 166.96 340.734 166.96C343.054 166.96 344.974 167.66 346.494 169.06C348.014 170.46 348.814 172.26 348.894 174.46V193H342.834V176.56C342.794 175.28 342.414 174.24 341.694 173.44C340.974 172.6 339.854 172.16 338.334 172.12C336.214 172.12 334.434 173 332.994 174.76C331.594 176.52 330.894 178.78 330.894 181.54V193H324.834V167.92H330.294ZM366.201 167.92H372.261V193H366.201V167.92ZM365.901 158.92C365.901 158 366.261 157.22 366.981 156.58C367.741 155.94 368.561 155.62 369.441 155.62C370.321 155.62 371.121 155.94 371.841 156.58C372.561 157.22 372.921 158 372.921 158.92C372.921 159.92 372.561 160.72 371.841 161.32C371.121 161.92 370.321 162.22 369.441 162.22C368.561 162.22 367.741 161.92 366.981 161.32C366.261 160.72 365.901 159.92 365.901 158.92ZM387.188 167.92L387.608 172.72C388.408 170.96 389.688 169.56 391.448 168.52C393.208 167.48 395.268 166.96 397.628 166.96C399.948 166.96 401.868 167.66 403.388 169.06C404.908 170.46 405.708 172.26 405.788 174.46V193H399.728V176.56C399.688 175.28 399.308 174.24 398.588 173.44C397.868 172.6 396.748 172.16 395.228 172.12C393.108 172.12 391.328 173 389.888 174.76C388.488 176.52 387.788 178.78 387.788 181.54V193H381.728V167.92H387.188ZM417.703 156.94H423.823V167.98H430.543V172.72H423.823V193H417.703V172.72H413.263V167.98H417.703V156.94ZM448.977 193.6C446.097 193.6 443.617 193.04 441.537 191.92C439.457 190.76 437.857 189.18 436.737 187.18C435.617 185.14 435.057 182.84 435.057 180.28C435.057 177.8 435.677 175.56 436.917 173.56C438.197 171.52 439.897 169.9 442.017 168.7C444.137 167.5 446.497 166.9 449.097 166.9C452.457 166.9 455.237 167.88 457.437 169.84C459.677 171.76 461.177 174.48 461.937 178L442.317 184.78C443.037 185.94 443.977 186.84 445.137 187.48C446.337 188.12 447.657 188.44 449.097 188.44C450.177 188.44 451.217 188.26 452.217 187.9C453.217 187.54 454.157 187.02 455.037 186.34L457.797 190.84C456.517 191.68 455.097 192.36 453.537 192.88C451.977 193.36 450.457 193.6 448.977 193.6ZM441.057 179.92C441.057 180.36 441.077 180.78 441.117 181.18L455.097 176.08C454.577 174.92 453.797 173.9 452.757 173.02C451.757 172.14 450.397 171.7 448.677 171.7C446.437 171.7 444.597 172.48 443.157 174.04C441.757 175.56 441.057 177.52 441.057 179.92ZM474.14 167.92L474.62 173.86C475.34 172.42 476.3 171.18 477.5 170.14C478.7 169.1 479.94 168.3 481.22 167.74C482.54 167.18 483.66 166.9 484.58 166.9L484.28 172.9C482.4 172.78 480.74 173.14 479.3 173.98C477.9 174.82 476.8 175.94 476 177.34C475.2 178.74 474.8 180.24 474.8 181.84V193H468.74V167.92H474.14ZM497.052 167.92L497.472 172.72C498.272 170.96 499.552 169.56 501.312 168.52C503.072 167.48 505.132 166.96 507.492 166.96C509.812 166.96 511.732 167.66 513.252 169.06C514.772 170.46 515.572 172.26 515.652 174.46V193H509.592V176.56C509.552 175.28 509.172 174.24 508.452 173.44C507.732 172.6 506.612 172.16 505.092 172.12C502.972 172.12 501.192 173 499.752 174.76C498.352 176.52 497.652 178.78 497.652 181.54V193H491.592V167.92H497.052ZM535.666 193.6C533.306 193.6 531.166 193.1 529.246 192.1C527.326 191.1 525.806 189.64 524.686 187.72C523.566 185.76 523.006 183.34 523.006 180.46C523.006 177.66 523.586 175.26 524.746 173.26C525.946 171.22 527.506 169.66 529.426 168.58C531.346 167.46 533.466 166.9 535.786 166.9C538.106 166.9 540.026 167.38 541.546 168.34C543.066 169.26 544.266 170.38 545.146 171.7L545.566 167.92H551.146V193H545.086V189.04C544.646 189.6 543.986 190.24 543.106 190.96C542.226 191.68 541.166 192.3 539.926 192.82C538.686 193.34 537.266 193.6 535.666 193.6ZM537.286 188.62C539.246 188.62 540.926 188.1 542.326 187.06C543.726 185.98 544.646 184.52 545.086 182.68V177.52C544.606 175.88 543.626 174.52 542.146 173.44C540.706 172.36 539.026 171.82 537.106 171.82C535.666 171.82 534.346 172.18 533.146 172.9C531.946 173.58 530.986 174.56 530.266 175.84C529.546 177.08 529.186 178.52 529.186 180.16C529.186 181.76 529.546 183.2 530.266 184.48C531.026 185.76 532.026 186.78 533.266 187.54C534.506 188.26 535.846 188.62 537.286 188.62ZM581.135 190.66C579.975 191.58 578.615 192.3 577.055 192.82C575.495 193.34 573.915 193.6 572.315 193.6C569.595 193.6 567.175 193.06 565.055 191.98C562.975 190.9 561.355 189.38 560.195 187.42C559.035 185.46 558.455 183.14 558.455 180.46C558.455 177.78 559.075 175.46 560.315 173.5C561.555 171.5 563.175 169.98 565.175 168.94C567.215 167.86 569.395 167.32 571.715 167.32C573.795 167.32 575.615 167.6 577.175 168.16C578.775 168.72 580.155 169.5 581.315 170.5L578.315 174.4C577.635 173.84 576.775 173.34 575.735 172.9C574.695 172.46 573.515 172.24 572.195 172.24C570.755 172.24 569.455 172.6 568.295 173.32C567.135 174.04 566.215 175.02 565.535 176.26C564.855 177.5 564.515 178.9 564.515 180.46C564.515 181.98 564.855 183.36 565.535 184.6C566.255 185.84 567.235 186.82 568.475 187.54C569.755 188.26 571.195 188.62 572.795 188.62C573.835 188.62 574.795 188.48 575.675 188.2C576.595 187.88 577.395 187.44 578.075 186.88L581.135 190.66ZM588.213 167.92H594.273V193H588.213V167.92ZM587.913 158.92C587.913 158 588.273 157.22 588.993 156.58C589.753 155.94 590.573 155.62 591.453 155.62C592.333 155.62 593.133 155.94 593.853 156.58C594.573 157.22 594.933 158 594.933 158.92C594.933 159.92 594.573 160.72 593.853 161.32C593.133 161.92 592.333 162.22 591.453 162.22C590.573 162.22 589.753 161.92 588.993 161.32C588.273 160.72 587.913 159.92 587.913 158.92ZM601.58 180.22C601.58 177.7 602.18 175.44 603.38 173.44C604.58 171.44 606.22 169.86 608.3 168.7C610.42 167.5 612.86 166.9 615.62 166.9C618.38 166.9 620.78 167.5 622.82 168.7C624.9 169.86 626.5 171.44 627.62 173.44C628.78 175.44 629.36 177.7 629.36 180.22C629.36 182.74 628.78 185.02 627.62 187.06C626.46 189.06 624.84 190.66 622.76 191.86C620.68 193.02 618.26 193.6 615.5 193.6C612.82 193.6 610.44 193.06 608.36 191.98C606.28 190.9 604.62 189.36 603.38 187.36C602.18 185.36 601.58 182.98 601.58 180.22ZM607.7 180.28C607.7 181.88 608.04 183.3 608.72 184.54C609.4 185.78 610.32 186.78 611.48 187.54C612.68 188.26 614 188.62 615.44 188.62C617.72 188.62 619.58 187.82 621.02 186.22C622.5 184.62 623.24 182.64 623.24 180.28C623.24 177.92 622.5 175.94 621.02 174.34C619.58 172.7 617.72 171.88 615.44 171.88C613.96 171.88 612.64 172.26 611.48 173.02C610.32 173.78 609.4 174.8 608.72 176.08C608.04 177.36 607.7 178.76 607.7 180.28ZM642.13 167.92L642.55 172.72C643.35 170.96 644.63 169.56 646.39 168.52C648.15 167.48 650.21 166.96 652.57 166.96C654.89 166.96 656.81 167.66 658.33 169.06C659.85 170.46 660.65 172.26 660.73 174.46V193H654.67V176.56C654.63 175.28 654.25 174.24 653.53 173.44C652.81 172.6 651.69 172.16 650.17 172.12C648.05 172.12 646.27 173 644.83 174.76C643.43 176.52 642.73 178.78 642.73 181.54V193H636.67V167.92H642.13ZM680.744 193.6C678.384 193.6 676.244 193.1 674.324 192.1C672.404 191.1 670.884 189.64 669.764 187.72C668.644 185.76 668.084 183.34 668.084 180.46C668.084 177.66 668.664 175.26 669.824 173.26C671.024 171.22 672.584 169.66 674.504 168.58C676.424 167.46 678.544 166.9 680.864 166.9C683.184 166.9 685.104 167.38 686.624 168.34C688.144 169.26 689.344 170.38 690.224 171.7L690.644 167.92H696.224V193H690.164V189.04C689.724 189.6 689.064 190.24 688.184 190.96C687.304 191.68 686.244 192.3 685.004 192.82C683.764 193.34 682.344 193.6 680.744 193.6ZM682.364 188.62C684.324 188.62 686.004 188.1 687.404 187.06C688.804 185.98 689.724 184.52 690.164 182.68V177.52C689.684 175.88 688.704 174.52 687.224 173.44C685.784 172.36 684.104 171.82 682.184 171.82C680.744 171.82 679.424 172.18 678.224 172.9C677.024 173.58 676.064 174.56 675.344 175.84C674.624 177.08 674.264 178.52 674.264 180.16C674.264 181.76 674.624 183.2 675.344 184.48C676.104 185.76 677.104 186.78 678.344 187.54C679.584 188.26 680.924 188.62 682.364 188.62ZM705.693 146.38H711.753V193H705.693V146.38ZM59 283.6C56.64 283.6 54.52 283.06 52.64 281.98C50.76 280.86 49.28 279.3 48.2 277.3C47.12 275.26 46.58 272.86 46.58 270.1C46.58 267.34 47.16 264.98 48.32 263.02C49.48 261.02 51.04 259.5 53 258.46C55 257.42 57.24 256.9 59.72 256.9C61.56 256.9 63.32 257.26 65 257.98C66.68 258.7 68.04 259.72 69.08 261.04V236.38H75.14V283H69.02V279.34C67.82 280.58 66.36 281.6 64.64 282.4C62.96 283.2 61.08 283.6 59 283.6ZM60.86 278.5C62.98 278.5 64.74 277.96 66.14 276.88C67.58 275.76 68.54 274.28 69.02 272.44V267.46C68.58 265.78 67.6 264.4 66.08 263.32C64.6 262.24 62.86 261.7 60.86 261.7C59.42 261.7 58.08 262.06 56.84 262.78C55.6 263.46 54.6 264.44 53.84 265.72C53.12 266.96 52.76 268.4 52.76 270.04C52.76 271.64 53.12 273.08 53.84 274.36C54.6 275.6 55.6 276.6 56.84 277.36C58.08 278.12 59.42 278.5 60.86 278.5ZM96.3594 283.6C93.4794 283.6 90.9994 283.04 88.9194 281.92C86.8394 280.76 85.2394 279.18 84.1194 277.18C82.9994 275.14 82.4394 272.84 82.4394 270.28C82.4394 267.8 83.0594 265.56 84.2994 263.56C85.5794 261.52 87.2794 259.9 89.3994 258.7C91.5194 257.5 93.8794 256.9 96.4794 256.9C99.8394 256.9 102.619 257.88 104.819 259.84C107.059 261.76 108.559 264.48 109.319 268L89.6994 274.78C90.4194 275.94 91.3594 276.84 92.5194 277.48C93.7194 278.12 95.0394 278.44 96.4794 278.44C97.5594 278.44 98.5994 278.26 99.5994 277.9C100.599 277.54 101.539 277.02 102.419 276.34L105.179 280.84C103.899 281.68 102.479 282.36 100.919 282.88C99.3594 283.36 97.8394 283.6 96.3594 283.6ZM88.4394 269.92C88.4394 270.36 88.4594 270.78 88.4994 271.18L102.479 266.08C101.959 264.92 101.179 263.9 100.139 263.02C99.1394 262.14 97.7794 261.7 96.0594 261.7C93.8194 261.7 91.9794 262.48 90.5394 264.04C89.1394 265.56 88.4394 267.52 88.4394 269.92ZM129.376 257.92L129.796 262.72C130.596 260.96 131.876 259.56 133.636 258.52C135.396 257.48 137.456 256.96 139.816 256.96C142.136 256.96 144.056 257.66 145.576 259.06C147.096 260.46 147.896 262.26 147.976 264.46V283H141.916V266.56C141.876 265.28 141.496 264.24 140.776 263.44C140.056 262.6 138.936 262.16 137.416 262.12C135.296 262.12 133.516 263 132.076 264.76C130.676 266.52 129.976 268.78 129.976 271.54V283H123.916V257.92H129.376ZM157.49 257.92H163.55V283H157.49V257.92ZM157.19 248.92C157.19 248 157.55 247.22 158.27 246.58C159.03 245.94 159.85 245.62 160.73 245.62C161.61 245.62 162.41 245.94 163.13 246.58C163.85 247.22 164.21 248 164.21 248.92C164.21 249.92 163.85 250.72 163.13 251.32C162.41 251.92 161.61 252.22 160.73 252.22C159.85 252.22 159.03 251.92 158.27 251.32C157.55 250.72 157.19 249.92 157.19 248.92ZM178.477 257.92L178.897 262.72C179.697 260.96 180.977 259.56 182.737 258.52C184.497 257.48 186.557 256.96 188.917 256.96C191.237 256.96 193.157 257.66 194.677 259.06C196.197 260.46 196.997 262.26 197.077 264.46V283H191.017V266.56C190.977 265.28 190.597 264.24 189.877 263.44C189.157 262.6 188.037 262.16 186.517 262.12C184.397 262.12 182.617 263 181.177 264.76C179.777 266.52 179.077 268.78 179.077 271.54V283H173.017V257.92H178.477ZM189.757 254.98C188.437 254.98 187.357 254.68 186.517 254.08C185.677 253.48 184.897 252.88 184.177 252.28C183.697 251.84 183.217 251.46 182.737 251.14C182.297 250.78 181.797 250.6 181.237 250.6C180.437 250.6 179.817 251.02 179.377 251.86C178.977 252.66 178.817 253.7 178.897 254.98H175.597C175.477 253.42 175.637 252 176.077 250.72C176.517 249.4 177.197 248.38 178.117 247.66C179.077 246.9 180.217 246.52 181.537 246.52C182.537 246.52 183.417 246.8 184.177 247.36C184.977 247.92 185.717 248.5 186.397 249.1C186.957 249.62 187.477 250.08 187.957 250.48C188.477 250.88 189.017 251.08 189.577 251.08C190.417 251.08 190.977 250.66 191.257 249.82C191.577 248.94 191.717 247.84 191.677 246.52H194.977C195.177 248.2 195.057 249.68 194.617 250.96C194.177 252.24 193.517 253.24 192.637 253.96C191.797 254.64 190.837 254.98 189.757 254.98ZM204.432 270.22C204.432 267.7 205.032 265.44 206.232 263.44C207.432 261.44 209.072 259.86 211.152 258.7C213.272 257.5 215.712 256.9 218.472 256.9C221.232 256.9 223.632 257.5 225.672 258.7C227.752 259.86 229.352 261.44 230.472 263.44C231.632 265.44 232.212 267.7 232.212 270.22C232.212 272.74 231.632 275.02 230.472 277.06C229.312 279.06 227.692 280.66 225.612 281.86C223.532 283.02 221.112 283.6 218.352 283.6C215.672 283.6 213.292 283.06 211.212 281.98C209.132 280.9 207.472 279.36 206.232 277.36C205.032 275.36 204.432 272.98 204.432 270.22ZM210.552 270.28C210.552 271.88 210.892 273.3 211.572 274.54C212.252 275.78 213.172 276.78 214.332 277.54C215.532 278.26 216.852 278.62 218.292 278.62C220.572 278.62 222.432 277.82 223.872 276.22C225.352 274.62 226.092 272.64 226.092 270.28C226.092 267.92 225.352 265.94 223.872 264.34C222.432 262.7 220.572 261.88 218.292 261.88C216.812 261.88 215.492 262.26 214.332 263.02C213.172 263.78 212.252 264.8 211.572 266.08C210.892 267.36 210.552 268.76 210.552 270.28ZM246.781 283.54C244.941 283.54 243.181 283.22 241.501 282.58C239.821 281.9 238.401 280.94 237.241 279.7L239.821 276.22C240.861 277.22 241.941 277.98 243.061 278.5C244.181 279.02 245.261 279.28 246.301 279.28C247.461 279.28 248.481 279.06 249.361 278.62C250.241 278.14 250.681 277.36 250.681 276.28C250.681 275.4 250.381 274.72 249.781 274.24C249.221 273.76 248.501 273.36 247.621 273.04C246.741 272.72 245.801 272.42 244.801 272.14C240.521 270.74 238.381 268.28 238.381 264.76C238.381 263.48 238.701 262.24 239.341 261.04C240.021 259.84 241.021 258.88 242.341 258.16C243.701 257.4 245.401 257.02 247.441 257.02C249.201 257.02 250.781 257.24 252.181 257.68C253.581 258.08 254.881 258.78 256.081 259.78L253.741 263.44C253.021 262.72 252.161 262.18 251.161 261.82C250.201 261.42 249.321 261.2 248.521 261.16C247.441 261.16 246.501 261.42 245.701 261.94C244.901 262.42 244.501 263.08 244.501 263.92C244.501 264.8 244.781 265.48 245.341 265.96C245.901 266.44 246.621 266.84 247.501 267.16C248.421 267.44 249.341 267.74 250.261 268.06C252.101 268.66 253.621 269.48 254.821 270.52C256.061 271.56 256.681 273.08 256.681 275.08C256.681 276.6 256.321 278 255.601 279.28C254.881 280.56 253.781 281.6 252.301 282.4C250.861 283.16 249.021 283.54 246.781 283.54ZM261.485 279.64C261.485 278.68 261.825 277.88 262.505 277.24C263.225 276.56 264.005 276.22 264.845 276.22C265.605 276.22 266.325 276.56 267.005 277.24C267.725 277.88 268.085 278.68 268.085 279.64C268.085 280.68 267.725 281.5 267.005 282.1C266.325 282.7 265.605 283 264.845 283C264.005 283 263.225 282.7 262.505 282.1C261.825 281.5 261.485 280.68 261.485 279.64ZM45.68 373L64.82 327.7H65.18L84.32 373H77.06L72.74 362.08H56.42L51.92 373H45.68ZM58.58 356.68H70.64L64.76 341.68L58.58 356.68ZM100.367 373.6C98.0072 373.6 95.8872 373.06 94.0072 371.98C92.1272 370.86 90.6472 369.3 89.5672 367.3C88.4872 365.26 87.9472 362.86 87.9472 360.1C87.9472 357.34 88.5272 354.98 89.6872 353.02C90.8472 351.02 92.4072 349.5 94.3672 348.46C96.3672 347.42 98.6072 346.9 101.087 346.9C102.927 346.9 104.687 347.26 106.367 347.98C108.047 348.7 109.407 349.72 110.447 351.04V326.38H116.507V373H110.387V369.34C109.187 370.58 107.727 371.6 106.007 372.4C104.327 373.2 102.447 373.6 100.367 373.6ZM102.227 368.5C104.347 368.5 106.107 367.96 107.507 366.88C108.947 365.76 109.907 364.28 110.387 362.44V357.46C109.947 355.78 108.967 354.4 107.447 353.32C105.967 352.24 104.227 351.7 102.227 351.7C100.787 351.7 99.4472 352.06 98.2072 352.78C96.9672 353.46 95.9672 354.44 95.2072 355.72C94.4872 356.96 94.1272 358.4 94.1272 360.04C94.1272 361.64 94.4872 363.08 95.2072 364.36C95.9672 365.6 96.9672 366.6 98.2072 367.36C99.4472 368.12 100.787 368.5 102.227 368.5ZM123.807 360.22C123.807 357.7 124.407 355.44 125.607 353.44C126.807 351.44 128.447 349.86 130.527 348.7C132.647 347.5 135.087 346.9 137.847 346.9C140.607 346.9 143.007 347.5 145.047 348.7C147.127 349.86 148.727 351.44 149.847 353.44C151.007 355.44 151.587 357.7 151.587 360.22C151.587 362.74 151.007 365.02 149.847 367.06C148.687 369.06 147.067 370.66 144.987 371.86C142.907 373.02 140.487 373.6 137.727 373.6C135.047 373.6 132.667 373.06 130.587 371.98C128.507 370.9 126.847 369.36 125.607 367.36C124.407 365.36 123.807 362.98 123.807 360.22ZM129.927 360.28C129.927 361.88 130.267 363.3 130.947 364.54C131.627 365.78 132.547 366.78 133.707 367.54C134.907 368.26 136.227 368.62 137.667 368.62C139.947 368.62 141.807 367.82 143.247 366.22C144.727 364.62 145.467 362.64 145.467 360.28C145.467 357.92 144.727 355.94 143.247 354.34C141.807 352.7 139.947 351.88 137.667 351.88C136.187 351.88 134.867 352.26 133.707 353.02C132.547 353.78 131.627 354.8 130.947 356.08C130.267 357.36 129.927 358.76 129.927 360.28ZM173.896 373.6C172.136 373.6 170.456 373.24 168.856 372.52C167.256 371.8 165.956 370.78 164.956 369.46V385.06H158.896V347.5H164.116L164.656 351.58C165.856 350.22 167.336 349.1 169.096 348.22C170.856 347.34 172.836 346.9 175.036 346.9C177.396 346.9 179.496 347.46 181.336 348.58C183.216 349.7 184.696 351.28 185.776 353.32C186.856 355.32 187.396 357.68 187.396 360.4C187.396 363.12 186.796 365.48 185.596 367.48C184.436 369.44 182.836 370.96 180.796 372.04C178.796 373.08 176.496 373.6 173.896 373.6ZM172.696 368.8C174.256 368.8 175.676 368.44 176.956 367.72C178.276 367 179.316 366.02 180.076 364.78C180.876 363.5 181.276 362.06 181.276 360.46C181.276 358.82 180.916 357.36 180.196 356.08C179.476 354.8 178.496 353.8 177.256 353.08C176.016 352.36 174.636 352 173.116 352C171.036 352 169.276 352.56 167.836 353.68C166.436 354.8 165.476 356.28 164.956 358.12V362.62C165.276 364.42 166.156 365.9 167.596 367.06C169.036 368.22 170.736 368.8 172.696 368.8ZM215.276 370.66C214.116 371.58 212.756 372.3 211.196 372.82C209.636 373.34 208.056 373.6 206.456 373.6C203.736 373.6 201.316 373.06 199.196 371.98C197.116 370.9 195.496 369.38 194.336 367.42C193.176 365.46 192.596 363.14 192.596 360.46C192.596 357.78 193.216 355.46 194.456 353.5C195.696 351.5 197.316 349.98 199.316 348.94C201.356 347.86 203.536 347.32 205.856 347.32C207.936 347.32 209.756 347.6 211.316 348.16C212.916 348.72 214.296 349.5 215.456 350.5L212.456 354.4C211.776 353.84 210.916 353.34 209.876 352.9C208.836 352.46 207.656 352.24 206.336 352.24C204.896 352.24 203.596 352.6 202.436 353.32C201.276 354.04 200.356 355.02 199.676 356.26C198.996 357.5 198.656 358.9 198.656 360.46C198.656 361.98 198.996 363.36 199.676 364.6C200.396 365.84 201.376 366.82 202.616 367.54C203.896 368.26 205.336 368.62 206.936 368.62C207.976 368.62 208.936 368.48 209.816 368.2C210.736 367.88 211.536 367.44 212.216 366.88L215.276 370.66ZM222.353 347.92H228.413V373H222.353V347.92ZM222.053 338.92C222.053 338 222.413 337.22 223.133 336.58C223.893 335.94 224.713 335.62 225.593 335.62C226.473 335.62 227.273 335.94 227.993 336.58C228.713 337.22 229.073 338 229.073 338.92C229.073 339.92 228.713 340.72 227.993 341.32C227.273 341.92 226.473 342.22 225.593 342.22C224.713 342.22 223.893 341.92 223.133 341.32C222.413 340.72 222.053 339.92 222.053 338.92ZM235.721 360.22C235.721 357.7 236.321 355.44 237.521 353.44C238.721 351.44 240.361 349.86 242.441 348.7C244.561 347.5 247.001 346.9 249.761 346.9C252.521 346.9 254.921 347.5 256.961 348.7C259.041 349.86 260.641 351.44 261.761 353.44C262.921 355.44 263.501 357.7 263.501 360.22C263.501 362.74 262.921 365.02 261.761 367.06C260.601 369.06 258.981 370.66 256.901 371.86C254.821 373.02 252.401 373.6 249.641 373.6C246.961 373.6 244.581 373.06 242.501 371.98C240.421 370.9 238.761 369.36 237.521 367.36C236.321 365.36 235.721 362.98 235.721 360.22ZM241.841 360.28C241.841 361.88 242.181 363.3 242.861 364.54C243.541 365.78 244.461 366.78 245.621 367.54C246.821 368.26 248.141 368.62 249.581 368.62C251.861 368.62 253.721 367.82 255.161 366.22C256.641 364.62 257.381 362.64 257.381 360.28C257.381 357.92 256.641 355.94 255.161 354.34C253.721 352.7 251.861 351.88 249.581 351.88C248.101 351.88 246.781 352.26 245.621 353.02C244.461 353.78 243.541 354.8 242.861 356.08C242.181 357.36 241.841 358.76 241.841 360.28ZM259.481 335.32L251.681 343.36H247.901L252.761 335.32H259.481ZM276.27 347.92L276.69 352.72C277.49 350.96 278.77 349.56 280.53 348.52C282.29 347.48 284.35 346.96 286.71 346.96C289.03 346.96 290.95 347.66 292.47 349.06C293.99 350.46 294.79 352.26 294.87 354.46V373H288.81V356.56C288.77 355.28 288.39 354.24 287.67 353.44C286.95 352.6 285.83 352.16 284.31 352.12C282.19 352.12 280.41 353 278.97 354.76C277.57 356.52 276.87 358.78 276.87 361.54V373H270.81V347.92H276.27ZM312.178 347.92H318.238V373H312.178V347.92ZM311.878 338.92C311.878 338 312.238 337.22 312.958 336.58C313.718 335.94 314.538 335.62 315.418 335.62C316.298 335.62 317.098 335.94 317.818 336.58C318.538 337.22 318.898 338 318.898 338.92C318.898 339.92 318.538 340.72 317.818 341.32C317.098 341.92 316.298 342.22 315.418 342.22C314.538 342.22 313.718 341.92 312.958 341.32C312.238 340.72 311.878 339.92 311.878 338.92ZM333.165 347.92L333.585 352.72C334.385 350.96 335.665 349.56 337.425 348.52C339.185 347.48 341.245 346.96 343.605 346.96C345.925 346.96 347.845 347.66 349.365 349.06C350.885 350.46 351.685 352.26 351.765 354.46V373H345.705V356.56C345.665 355.28 345.285 354.24 344.565 353.44C343.845 352.6 342.725 352.16 341.205 352.12C339.085 352.12 337.305 353 335.865 354.76C334.465 356.52 333.765 358.78 333.765 361.54V373H327.705V347.92H333.165ZM363.679 336.94H369.799V347.98H376.519V352.72H369.799V373H363.679V352.72H359.239V347.98H363.679V336.94ZM394.953 373.6C392.073 373.6 389.593 373.04 387.513 371.92C385.433 370.76 383.833 369.18 382.713 367.18C381.593 365.14 381.033 362.84 381.033 360.28C381.033 357.8 381.653 355.56 382.893 353.56C384.173 351.52 385.873 349.9 387.993 348.7C390.113 347.5 392.473 346.9 395.073 346.9C398.433 346.9 401.213 347.88 403.413 349.84C405.653 351.76 407.153 354.48 407.913 358L388.293 364.78C389.013 365.94 389.953 366.84 391.113 367.48C392.313 368.12 393.633 368.44 395.073 368.44C396.153 368.44 397.193 368.26 398.193 367.9C399.193 367.54 400.133 367.02 401.013 366.34L403.773 370.84C402.493 371.68 401.073 372.36 399.513 372.88C397.953 373.36 396.433 373.6 394.953 373.6ZM387.033 359.92C387.033 360.36 387.053 360.78 387.093 361.18L401.073 356.08C400.553 354.92 399.773 353.9 398.733 353.02C397.733 352.14 396.373 351.7 394.653 351.7C392.413 351.7 390.573 352.48 389.133 354.04C387.733 355.56 387.033 357.52 387.033 359.92ZM420.117 347.92L420.597 353.86C421.317 352.42 422.277 351.18 423.477 350.14C424.677 349.1 425.917 348.3 427.197 347.74C428.517 347.18 429.637 346.9 430.557 346.9L430.257 352.9C428.377 352.78 426.717 353.14 425.277 353.98C423.877 354.82 422.777 355.94 421.977 357.34C421.177 358.74 420.777 360.24 420.777 361.84V373H414.717V347.92H420.117ZM443.028 347.92L443.448 352.72C444.248 350.96 445.528 349.56 447.288 348.52C449.048 347.48 451.108 346.96 453.468 346.96C455.788 346.96 457.708 347.66 459.228 349.06C460.748 350.46 461.548 352.26 461.628 354.46V373H455.568V356.56C455.528 355.28 455.148 354.24 454.428 353.44C453.708 352.6 452.588 352.16 451.068 352.12C448.948 352.12 447.168 353 445.728 354.76C444.328 356.52 443.628 358.78 443.628 361.54V373H437.568V347.92H443.028ZM481.642 373.6C479.282 373.6 477.142 373.1 475.222 372.1C473.302 371.1 471.782 369.64 470.662 367.72C469.542 365.76 468.982 363.34 468.982 360.46C468.982 357.66 469.562 355.26 470.722 353.26C471.922 351.22 473.482 349.66 475.402 348.58C477.322 347.46 479.442 346.9 481.762 346.9C484.082 346.9 486.002 347.38 487.522 348.34C489.042 349.26 490.242 350.38 491.122 351.7L491.542 347.92H497.122V373H491.062V369.04C490.622 369.6 489.962 370.24 489.082 370.96C488.202 371.68 487.142 372.3 485.902 372.82C484.662 373.34 483.242 373.6 481.642 373.6ZM483.262 368.62C485.222 368.62 486.902 368.1 488.302 367.06C489.702 365.98 490.622 364.52 491.062 362.68V357.52C490.582 355.88 489.602 354.52 488.122 353.44C486.682 352.36 485.002 351.82 483.082 351.82C481.642 351.82 480.322 352.18 479.122 352.9C477.922 353.58 476.962 354.56 476.242 355.84C475.522 357.08 475.162 358.52 475.162 360.16C475.162 361.76 475.522 363.2 476.242 364.48C477.002 365.76 478.002 366.78 479.242 367.54C480.482 368.26 481.822 368.62 483.262 368.62ZM527.112 370.66C525.952 371.58 524.592 372.3 523.032 372.82C521.472 373.34 519.892 373.6 518.292 373.6C515.572 373.6 513.152 373.06 511.032 371.98C508.952 370.9 507.332 369.38 506.172 367.42C505.012 365.46 504.432 363.14 504.432 360.46C504.432 357.78 505.052 355.46 506.292 353.5C507.532 351.5 509.152 349.98 511.152 348.94C513.192 347.86 515.372 347.32 517.692 347.32C519.772 347.32 521.592 347.6 523.152 348.16C524.752 348.72 526.132 349.5 527.292 350.5L524.292 354.4C523.612 353.84 522.752 353.34 521.712 352.9C520.672 352.46 519.492 352.24 518.172 352.24C516.732 352.24 515.432 352.6 514.272 353.32C513.112 354.04 512.192 355.02 511.512 356.26C510.832 357.5 510.492 358.9 510.492 360.46C510.492 361.98 510.832 363.36 511.512 364.6C512.232 365.84 513.212 366.82 514.452 367.54C515.732 368.26 517.172 368.62 518.772 368.62C519.812 368.62 520.772 368.48 521.652 368.2C522.572 367.88 523.372 367.44 524.052 366.88L527.112 370.66ZM534.189 347.92H540.249V373H534.189V347.92ZM533.889 338.92C533.889 338 534.249 337.22 534.969 336.58C535.729 335.94 536.549 335.62 537.429 335.62C538.309 335.62 539.109 335.94 539.829 336.58C540.549 337.22 540.909 338 540.909 338.92C540.909 339.92 540.549 340.72 539.829 341.32C539.109 341.92 538.309 342.22 537.429 342.22C536.549 342.22 535.729 341.92 534.969 341.32C534.249 340.72 533.889 339.92 533.889 338.92ZM547.557 360.22C547.557 357.7 548.157 355.44 549.357 353.44C550.557 351.44 552.197 349.86 554.277 348.7C556.397 347.5 558.837 346.9 561.597 346.9C564.357 346.9 566.757 347.5 568.797 348.7C570.877 349.86 572.477 351.44 573.597 353.44C574.757 355.44 575.337 357.7 575.337 360.22C575.337 362.74 574.757 365.02 573.597 367.06C572.437 369.06 570.817 370.66 568.737 371.86C566.657 373.02 564.237 373.6 561.477 373.6C558.797 373.6 556.417 373.06 554.337 371.98C552.257 370.9 550.597 369.36 549.357 367.36C548.157 365.36 547.557 362.98 547.557 360.22ZM553.677 360.28C553.677 361.88 554.017 363.3 554.697 364.54C555.377 365.78 556.297 366.78 557.457 367.54C558.657 368.26 559.977 368.62 561.417 368.62C563.697 368.62 565.557 367.82 566.997 366.22C568.477 364.62 569.217 362.64 569.217 360.28C569.217 357.92 568.477 355.94 566.997 354.34C565.557 352.7 563.697 351.88 561.417 351.88C559.937 351.88 558.617 352.26 557.457 353.02C556.297 353.78 555.377 354.8 554.697 356.08C554.017 357.36 553.677 358.76 553.677 360.28ZM588.106 347.92L588.526 352.72C589.326 350.96 590.606 349.56 592.366 348.52C594.126 347.48 596.186 346.96 598.546 346.96C600.866 346.96 602.786 347.66 604.306 349.06C605.826 350.46 606.626 352.26 606.706 354.46V373H600.646V356.56C600.606 355.28 600.226 354.24 599.506 353.44C598.786 352.6 597.666 352.16 596.146 352.12C594.026 352.12 592.246 353 590.806 354.76C589.406 356.52 588.706 358.78 588.706 361.54V373H582.646V347.92H588.106ZM626.72 373.6C624.36 373.6 622.22 373.1 620.3 372.1C618.38 371.1 616.86 369.64 615.74 367.72C614.62 365.76 614.06 363.34 614.06 360.46C614.06 357.66 614.64 355.26 615.8 353.26C617 351.22 618.56 349.66 620.48 348.58C622.4 347.46 624.52 346.9 626.84 346.9C629.16 346.9 631.08 347.38 632.6 348.34C634.12 349.26 635.32 350.38 636.2 351.7L636.62 347.92H642.2V373H636.14V369.04C635.7 369.6 635.04 370.24 634.16 370.96C633.28 371.68 632.22 372.3 630.98 372.82C629.74 373.34 628.32 373.6 626.72 373.6ZM628.34 368.62C630.3 368.62 631.98 368.1 633.38 367.06C634.78 365.98 635.7 364.52 636.14 362.68V357.52C635.66 355.88 634.68 354.52 633.2 353.44C631.76 352.36 630.08 351.82 628.16 351.82C626.72 351.82 625.4 352.18 624.2 352.9C623 353.58 622.04 354.56 621.32 355.84C620.6 357.08 620.24 358.52 620.24 360.16C620.24 361.76 620.6 363.2 621.32 364.48C622.08 365.76 623.08 366.78 624.32 367.54C625.56 368.26 626.9 368.62 628.34 368.62ZM651.67 326.38H657.73V373H651.67V326.38ZM664.317 369.64C664.317 368.68 664.657 367.88 665.337 367.24C666.057 366.56 666.837 366.22 667.677 366.22C668.437 366.22 669.157 366.56 669.837 367.24C670.557 367.88 670.917 368.68 670.917 369.64C670.917 370.68 670.557 371.5 669.837 372.1C669.157 372.7 668.437 373 667.677 373C666.837 373 666.057 372.7 665.337 372.1C664.657 371.5 664.317 370.68 664.317 369.64Z" fill="white"/>
</g>
<defs>
<filter id="filter0_d" x="0" y="0" width="855" height="496" filterUnits="userSpaceOnUse" color-interpolation-filters="sRGB">
<feFlood flood-opacity="0" result="BackgroundImageFix"/>
<feColorMatrix in="SourceAlpha" type="matrix" values="0 0 0 0 0 0 0 0 0 0 0 0 0 0 0 0 0 0 127 0"/>
<feOffset dy="4"/>
<feGaussianBlur stdDeviation="2"/>
<feColorMatrix type="matrix" values="0 0 0 0 0 0 0 0 0 0 0 0 0 0 0 0 0 0 0.25 0"/>
<feBlend mode="normal" in2="BackgroundImageFix" result="effect1_dropShadow"/>
<feBlend mode="normal" in="SourceGraphic" in2="effect1_dropShadow" result="shape"/>
</filter>
</defs>
</svg>
