<svg width="94" height="22" viewBox="0 0 94 22" fill="none" xmlns="http://www.w3.org/2000/svg">
<g filter="url(#filter0_d)">
<g filter="url(#filter1_b)">
<path d="M11.8965 11.7876C11.5833 12.2362 11.1453 12.5726 10.5825 12.7969C10.0239 13.0169 9.37223 13.127 8.62744 13.127C7.87419 13.127 7.20557 12.9513 6.62158 12.6001C6.0376 12.2446 5.5848 11.741 5.26318 11.0894C4.9458 10.4377 4.78288 9.68229 4.77441 8.82324V8.01709C4.77441 6.62484 5.09814 5.54574 5.74561 4.77979C6.3973 4.01383 7.31136 3.63086 8.48779 3.63086C9.45264 3.63086 10.2292 3.87842 10.8174 4.37354C11.4056 4.86442 11.7653 5.56266 11.8965 6.46826H10.6777C10.4492 5.24528 9.72135 4.63379 8.49414 4.63379C7.67741 4.63379 7.05745 4.92155 6.63428 5.49707C6.21533 6.06836 6.00374 6.89779 5.99951 7.98535V8.74072C5.99951 9.77751 6.23649 10.6027 6.71045 11.2163C7.18441 11.8257 7.82552 12.1304 8.63379 12.1304C9.09082 12.1304 9.49072 12.0796 9.8335 11.978C10.1763 11.8765 10.4598 11.7051 10.6841 11.4639V9.38818H8.54492V8.39795H11.8965V11.7876ZM15.1592 12.0034H19.5391V13H13.9341V3.75781H15.1592V12.0034ZM27.6196 8.67725C27.6196 9.58285 27.4673 10.3742 27.1626 11.0513C26.8579 11.7241 26.4263 12.2383 25.8677 12.5938C25.3091 12.9492 24.6574 13.127 23.9126 13.127C23.1847 13.127 22.5394 12.9492 21.9766 12.5938C21.4137 12.234 20.9757 11.7241 20.6626 11.064C20.3537 10.3996 20.195 9.63151 20.1865 8.75977V8.09326C20.1865 7.20459 20.341 6.4196 20.6499 5.73828C20.9588 5.05697 21.3947 4.53646 21.9575 4.17676C22.5246 3.81283 23.172 3.63086 23.8999 3.63086C24.6405 3.63086 25.2922 3.81071 25.855 4.17041C26.422 4.52588 26.8579 5.04427 27.1626 5.72559C27.4673 6.40267 27.6196 7.19189 27.6196 8.09326V8.67725ZM26.4072 8.08057C26.4072 6.98454 26.1872 6.14453 25.7471 5.56055C25.307 4.97233 24.6912 4.67822 23.8999 4.67822C23.1297 4.67822 22.5225 4.97233 22.0781 5.56055C21.638 6.14453 21.4116 6.95703 21.3989 7.99805V8.67725C21.3989 9.73942 21.6211 10.5752 22.0654 11.1846C22.514 11.7897 23.1297 12.0923 23.9126 12.0923C24.6997 12.0923 25.3091 11.8066 25.7407 11.2354C26.1724 10.6598 26.3945 9.83675 26.4072 8.76611V8.08057ZM29.4478 13V3.75781H32.4692C33.4722 3.75781 34.2254 3.96517 34.729 4.37988C35.2368 4.7946 35.4907 5.4082 35.4907 6.2207C35.4907 6.65234 35.368 7.03532 35.1226 7.36963C34.8771 7.69971 34.5428 7.95573 34.1196 8.1377C34.619 8.27734 35.0125 8.54395 35.3003 8.9375C35.5923 9.32682 35.7383 9.79232 35.7383 10.334C35.7383 11.1634 35.4696 11.8151 34.9321 12.2891C34.3947 12.763 33.6351 13 32.6533 13H29.4478ZM30.6665 8.67725V12.0034H32.6787C33.2458 12.0034 33.6922 11.8574 34.0181 11.5654C34.3481 11.2692 34.5132 10.863 34.5132 10.3467C34.5132 9.23372 33.908 8.67725 32.6978 8.67725H30.6665ZM30.6665 7.69971H32.5073C33.0405 7.69971 33.4658 7.56641 33.7832 7.2998C34.1048 7.0332 34.2656 6.67139 34.2656 6.21436C34.2656 5.70654 34.1175 5.33838 33.8213 5.10986C33.5251 4.87712 33.0744 4.76074 32.4692 4.76074H30.6665V7.69971ZM42.6509 10.5879H38.7788L37.9092 13H36.6523L40.1816 3.75781H41.248L44.7837 13H43.5332L42.6509 10.5879ZM39.147 9.58496H42.2891L40.7148 5.26221L39.147 9.58496ZM47.2529 12.0034H51.6328V13H46.0278V3.75781H47.2529V12.0034ZM54.5972 3.75781L57.6187 11.2988L60.6401 3.75781H62.2207V13H61.002V9.40088L61.1162 5.51611L58.082 13H57.1489L54.1211 5.53516L54.2417 9.40088V13H53.0229V3.75781H54.5972ZM69.5967 8.72803H65.5913V12.0034H70.2441V13H64.3726V3.75781H70.1807V4.76074H65.5913V7.73145H69.5967V8.72803ZM74.7764 7.2998L76.9917 3.75781H78.4263L75.5063 8.34082L78.4961 13H77.0488L74.7764 9.39453L72.4912 13H71.0503L74.0464 8.34082L71.1201 3.75781H72.5483L74.7764 7.2998ZM82.73 8.39795L85.1421 3.75781H86.5259L83.3394 9.55322V13H82.1206V9.55322L78.9341 3.75781H80.3306L82.73 8.39795Z" fill="white"/>
</g>
</g>
<defs>
<filter id="filter0_d" x="-3" y="0" width="101" height="25" filterUnits="userSpaceOnUse" color-interpolation-filters="sRGB">
<feFlood flood-opacity="0" result="BackgroundImageFix"/>
<feColorMatrix in="SourceAlpha" type="matrix" values="0 0 0 0 0 0 0 0 0 0 0 0 0 0 0 0 0 0 127 0"/>
<feOffset dy="4"/>
<feGaussianBlur stdDeviation="2"/>
<feColorMatrix type="matrix" values="0 0 0 0 0 0 0 0 0 0 0 0 0 0 0 0 0 0 0.25 0"/>
<feBlend mode="normal" in2="BackgroundImageFix" result="effect1_dropShadow"/>
<feBlend mode="normal" in="SourceGraphic" in2="effect1_dropShadow" result="shape"/>
</filter>
<filter id="filter1_b" x="3.77441" y="2.63086" width="83.7515" height="11.4961" filterUnits="userSpaceOnUse" color-interpolation-filters="sRGB">
<feFlood flood-opacity="0" result="BackgroundImageFix"/>
<feGaussianBlur in="BackgroundImage" stdDeviation="0.5"/>
<feComposite in2="SourceAlpha" operator="in" result="effect1_backgroundBlur"/>
<feBlend mode="normal" in="SourceGraphic" in2="effect1_backgroundBlur" result="shape"/>
</filter>
</defs>
</svg>
